solid OpenSCAD_Model
  facet normal 0.98964 0.104015 -0.0989641
    outer loop
      vertex 3.16441 11.9843 3
      vertex 2.98882 12.9 2.20649
      vertex 3.10978 12.504 3
    endloop
  endfacet
  facet normal 0.98964 0.104015 -0.098964
    outer loop
      vertex 2.98882 12.9 2.20649
      vertex 3.16441 11.9843 3
      vertex 2.87097 11.9219 0
    endloop
  endfacet
  facet normal 0.98964 0.104015 -0.098964
    outer loop
      vertex 2.98882 12.9 2.20649
      vertex 2.87097 11.9219 0
      vertex 2.76817 12.9 0
    endloop
  endfacet
  facet normal -0.861774 0.497545 -0.098964
    outer loop
      vertex 25.0318 7.21146 0
      vertex 25.0504 7.84042 3
      vertex 26.0771 9.02195 0
    endloop
  endfacet
  facet normal -0.861773 0.497547 -0.0989643
    outer loop
      vertex 25.0504 7.84042 3
      vertex 25.0318 7.21146 0
      vertex 24.7891 7.3878 3
    endloop
  endfacet
  facet normal 0.946388 0.3075 -0.098964
    outer loop
      vertex 3.16441 11.9843 3
      vertex 3.02601 11.4447 0
      vertex 2.87097 11.9219 0
    endloop
  endfacet
  facet normal 0.946388 0.3075 -0.098964
    outer loop
      vertex 3.02601 11.4447 0
      vertex 3.16441 11.9843 3
      vertex 3.78459 10.0755 3
    endloop
  endfacet
  facet normal 0.40474 0.909061 -0.0989641
    outer loop
      vertex 9.25836 3.55721 0
      vertex 8.95 4.02109 3
      vertex 10.7834 3.20479 3
    endloop
  endfacet
  facet normal 0.404741 0.909061 -0.0989639
    outer loop
      vertex 8.95 4.02109 3
      vertex 9.25836 3.55721 0
      vertex 8.8 3.76128 0
    endloop
  endfacet
  facet normal 0 0.995091 -0.098964
    outer loop
      vertex 16.2962 2.16793 0
      vertex 13.7352 2.46628 3
      vertex 16.2648 2.46628 3
    endloop
  endfacet
  facet normal 0 0.995091 -0.098964
    outer loop
      vertex 13.7352 2.46628 3
      vertex 16.2962 2.16793 0
      vertex 13.7038 2.16793 0
    endloop
  endfacet
  facet normal -0.206891 0.973346 -0.0989638
    outer loop
      vertex 18.8318 2.7069 0
      vertex 18.2279 2.88355 3
      vertex 18.7391 2.99222 3
    endloop
  endfacet
  facet normal -0.206891 0.973346 -0.0989638
    outer loop
      vertex 18.2279 2.88355 3
      vertex 18.8318 2.7069 0
      vertex 16.7869 2.27224 0
    endloop
  endfacet
  facet normal -0.861774 0.497545 -0.0989639
    outer loop
      vertex 26.0771 9.02195 0
      vertex 26.0539 9.57849 3
      vertex 26.328 9.45646 0
    endloop
  endfacet
  facet normal -0.861774 0.497545 -0.0989639
    outer loop
      vertex 26.0539 9.57849 3
      vertex 26.0771 9.02195 0
      vertex 25.0504 7.84042 3
    endloop
  endfacet
  facet normal -0.946388 0.307501 -0.0989641
    outer loop
      vertex 26.328 9.45646 0
      vertex 26.2154 10.0755 3
      vertex 26.974 11.4447 0
    endloop
  endfacet
  facet normal -0.946388 0.307499 -0.0989639
    outer loop
      vertex 26.2154 10.0755 3
      vertex 26.328 9.45646 0
      vertex 26.0539 9.57849 3
    endloop
  endfacet
  facet normal -0.946388 0.307499 -0.0989639
    outer loop
      vertex 26.974 11.4447 0
      vertex 26.8356 11.9843 3
      vertex 27.129 11.9219 0
    endloop
  endfacet
  facet normal -0.946388 0.307501 -0.0989641
    outer loop
      vertex 26.8356 11.9843 3
      vertex 26.974 11.4447 0
      vertex 26.2154 10.0755 3
    endloop
  endfacet
  facet normal 0.861774 0.497546 -0.0989641
    outer loop
      vertex 3.9461 9.57849 3
      vertex 3.9229 9.02195 0
      vertex 3.67204 9.45646 0
    endloop
  endfacet
  facet normal 0.861774 0.497546 -0.098964
    outer loop
      vertex 3.9229 9.02195 0
      vertex 3.9461 9.57849 3
      vertex 4.94957 7.84042 3
    endloop
  endfacet
  facet normal 0.206891 0.973346 -0.0989639
    outer loop
      vertex 11.1682 2.7069 0
      vertex 11.7721 2.88355 3
      vertex 13.2131 2.27224 0
    endloop
  endfacet
  facet normal 0.206891 0.973346 -0.0989638
    outer loop
      vertex 11.7721 2.88355 3
      vertex 11.1682 2.7069 0
      vertex 11.2609 2.99222 3
    endloop
  endfacet
  facet normal 0.40474 0.909061 -0.0989638
    outer loop
      vertex 11.1682 2.7069 0
      vertex 10.7834 3.20479 3
      vertex 11.2609 2.99222 3
    endloop
  endfacet
  facet normal 0.404739 0.909061 -0.098964
    outer loop
      vertex 10.7834 3.20479 3
      vertex 11.1682 2.7069 0
      vertex 9.25836 3.55721 0
    endloop
  endfacet
  facet normal -0.5849 0.805046 -0.0989639
    outer loop
      vertex 23.2972 5.285 0
      vertex 22.6737 5.20075 3
      vertex 23.0965 5.50795 3
    endloop
  endfacet
  facet normal -0.5849 0.805045 -0.0989641
    outer loop
      vertex 22.6737 5.20075 3
      vertex 23.2972 5.285 0
      vertex 21.6059 4.0562 0
    endloop
  endfacet
  facet normal -0.5849 0.805045 -0.0989641
    outer loop
      vertex 21.6059 4.0562 0
      vertex 21.05 4.02109 3
      vertex 22.6737 5.20075 3
    endloop
  endfacet
  facet normal -0.584901 0.805045 -0.0989643
    outer loop
      vertex 21.05 4.02109 3
      vertex 21.6059 4.0562 0
      vertex 21.2 3.76128 0
    endloop
  endfacet
  facet normal -0.739497 0.665846 -0.0989642
    outer loop
      vertex 25.0318 7.21146 0
      vertex 24.4394 6.9994 3
      vertex 24.7891 7.3878 3
    endloop
  endfacet
  facet normal -0.739496 0.665846 -0.0989642
    outer loop
      vertex 24.4394 6.9994 3
      vertex 25.0318 7.21146 0
      vertex 23.6329 5.65787 0
    endloop
  endfacet
  facet normal -0.98964 0.104015 -0.0989635
    outer loop
      vertex 27.129 11.9219 0
      vertex 27.0112 12.9 2.20649
      vertex 27.2318 12.9 0
    endloop
  endfacet
  facet normal -0.98964 0.104015 -0.0989638
    outer loop
      vertex 26.8356 11.9843 3
      vertex 27.0112 12.9 2.20649
      vertex 27.129 11.9219 0
    endloop
  endfacet
  facet normal -0.98964 0.104014 -0.0989654
    outer loop
      vertex 27.0112 12.9 2.20649
      vertex 26.8356 11.9843 3
      vertex 26.8902 12.504 3
    endloop
  endfacet
  facet normal -0.98964 0.104016 -0.0989645
    outer loop
      vertex 26.9318 12.9 3
      vertex 27.0112 12.9 2.20649
      vertex 26.8902 12.504 3
    endloop
  endfacet
  facet normal 0.739497 0.665846 -0.0989639
    outer loop
      vertex 6.90352 5.50795 3
      vertex 6.36705 5.65787 0
      vertex 5.56061 6.9994 3
    endloop
  endfacet
  facet normal 0.739497 0.665846 -0.0989639
    outer loop
      vertex 6.36705 5.65787 0
      vertex 6.90352 5.50795 3
      vertex 6.70278 5.285 0
    endloop
  endfacet
  facet normal 0.861774 0.497546 -0.098964
    outer loop
      vertex 4.96819 7.21146 0
      vertex 4.94957 7.84042 3
      vertex 5.21089 7.3878 3
    endloop
  endfacet
  facet normal 0.861774 0.497546 -0.0989639
    outer loop
      vertex 4.94957 7.84042 3
      vertex 4.96819 7.21146 0
      vertex 3.9229 9.02195 0
    endloop
  endfacet
  facet normal 0.946388 0.3075 -0.098964
    outer loop
      vertex 3.67204 9.45646 0
      vertex 3.78459 10.0755 3
      vertex 3.9461 9.57849 3
    endloop
  endfacet
  facet normal 0.946388 0.3075 -0.098964
    outer loop
      vertex 3.78459 10.0755 3
      vertex 3.67204 9.45646 0
      vertex 3.02601 11.4447 0
    endloop
  endfacet
  facet normal 0.98964 0.104015 -0.0989639
    outer loop
      vertex 3.06817 12.9 3
      vertex 3.10978 12.504 3
      vertex 2.98882 12.9 2.20649
    endloop
  endfacet
  facet normal -0.40474 0.909061 -0.0989639
    outer loop
      vertex 18.8318 2.7069 0
      vertex 19.2166 3.20479 3
      vertex 20.7416 3.55721 0
    endloop
  endfacet
  facet normal -0.40474 0.909061 -0.0989638
    outer loop
      vertex 19.2166 3.20479 3
      vertex 18.8318 2.7069 0
      vertex 18.7391 2.99222 3
    endloop
  endfacet
  facet normal -0.404739 0.909061 -0.0989642
    outer loop
      vertex 20.7416 3.55721 0
      vertex 21.05 4.02109 3
      vertex 21.2 3.76128 0
    endloop
  endfacet
  facet normal -0.40474 0.909061 -0.0989641
    outer loop
      vertex 21.05 4.02109 3
      vertex 20.7416 3.55721 0
      vertex 19.2166 3.20479 3
    endloop
  endfacet
  facet normal 0.206891 0.973346 -0.0989639
    outer loop
      vertex 13.2131 2.27224 0
      vertex 13.7352 2.46628 3
      vertex 13.7038 2.16793 0
    endloop
  endfacet
  facet normal 0.206891 0.973346 -0.098964
    outer loop
      vertex 13.7352 2.46628 3
      vertex 13.2131 2.27224 0
      vertex 11.7721 2.88355 3
    endloop
  endfacet
  facet normal -0.739497 0.665846 -0.098964
    outer loop
      vertex 23.6329 5.65787 0
      vertex 23.0965 5.50795 3
      vertex 24.4394 6.9994 3
    endloop
  endfacet
  facet normal -0.739496 0.665846 -0.0989639
    outer loop
      vertex 23.0965 5.50795 3
      vertex 23.6329 5.65787 0
      vertex 23.2972 5.285 0
    endloop
  endfacet
  facet normal 0.739497 0.665845 -0.098964
    outer loop
      vertex 5.56061 6.9994 3
      vertex 4.96819 7.21146 0
      vertex 5.21089 7.3878 3
    endloop
  endfacet
  facet normal 0.739497 0.665846 -0.0989638
    outer loop
      vertex 4.96819 7.21146 0
      vertex 5.56061 6.9994 3
      vertex 6.36705 5.65787 0
    endloop
  endfacet
  facet normal -0.206891 0.973346 -0.0989639
    outer loop
      vertex 16.7869 2.27224 0
      vertex 16.2648 2.46628 3
      vertex 18.2279 2.88355 3
    endloop
  endfacet
  facet normal -0.206891 0.973346 -0.098964
    outer loop
      vertex 16.2648 2.46628 3
      vertex 16.7869 2.27224 0
      vertex 16.2962 2.16793 0
    endloop
  endfacet
  facet normal 0.5849 0.805045 -0.0989639
    outer loop
      vertex 6.70278 5.285 0
      vertex 7.32635 5.20075 3
      vertex 8.39409 4.0562 0
    endloop
  endfacet
  facet normal 0.5849 0.805045 -0.0989639
    outer loop
      vertex 7.32635 5.20075 3
      vertex 6.70278 5.285 0
      vertex 6.90352 5.50795 3
    endloop
  endfacet
  facet normal 0.5849 0.805046 -0.0989639
    outer loop
      vertex 8.39409 4.0562 0
      vertex 8.95 4.02109 3
      vertex 8.8 3.76128 0
    endloop
  endfacet
  facet normal 0.5849 0.805045 -0.098964
    outer loop
      vertex 8.95 4.02109 3
      vertex 8.39409 4.0562 0
      vertex 7.32635 5.20075 3
    endloop
  endfacet
  facet normal 0.946389 0.307496 -0.0989638
    outer loop
      vertex 33.672 9.45646 0
      vertex 33.7846 10.0755 3
      vertex 33.9461 9.57849 3
    endloop
  endfacet
  facet normal 0.946388 0.307501 -0.0989647
    outer loop
      vertex 33.7846 10.0755 3
      vertex 33.672 9.45646 0
      vertex 33.026 11.4447 0
    endloop
  endfacet
  facet normal 0 0.995091 -0.098964
    outer loop
      vertex 46.2962 2.16793 0
      vertex 43.7352 2.46628 3
      vertex 46.2648 2.46628 3
    endloop
  endfacet
  facet normal 0 0.995091 -0.098964
    outer loop
      vertex 43.7352 2.46628 3
      vertex 46.2962 2.16793 0
      vertex 43.7038 2.16793 0
    endloop
  endfacet
  facet normal -0.946388 0.307499 -0.0989633
    outer loop
      vertex 56.974 11.4447 0
      vertex 56.8356 11.9843 3
      vertex 57.129 11.9219 0
    endloop
  endfacet
  facet normal -0.946388 0.307501 -0.0989635
    outer loop
      vertex 56.8356 11.9843 3
      vertex 56.974 11.4447 0
      vertex 56.2154 10.0755 3
    endloop
  endfacet
  facet normal 0.206891 0.973346 -0.0989641
    outer loop
      vertex 43.2131 2.27224 0
      vertex 43.7352 2.46628 3
      vertex 43.7038 2.16793 0
    endloop
  endfacet
  facet normal 0.206891 0.973346 -0.098964
    outer loop
      vertex 43.7352 2.46628 3
      vertex 43.2131 2.27224 0
      vertex 41.7721 2.88355 3
    endloop
  endfacet
  facet normal -0.404741 0.909061 -0.0989642
    outer loop
      vertex 50.7416 3.55721 0
      vertex 51.05 4.02109 3
      vertex 51.2 3.76128 0
    endloop
  endfacet
  facet normal -0.40474 0.909061 -0.0989642
    outer loop
      vertex 51.05 4.02109 3
      vertex 50.7416 3.55721 0
      vertex 49.2166 3.20479 3
    endloop
  endfacet
  facet normal -0.861773 0.497548 -0.0989639
    outer loop
      vertex 56.0771 9.02195 0
      vertex 56.0539 9.57849 3
      vertex 56.328 9.45646 0
    endloop
  endfacet
  facet normal -0.861774 0.497546 -0.0989635
    outer loop
      vertex 56.0539 9.57849 3
      vertex 56.0771 9.02195 0
      vertex 55.0504 7.84042 3
    endloop
  endfacet
  facet normal -0.989639 0.104018 -0.0989643
    outer loop
      vertex 57.129 11.9219 0
      vertex 57.0112 12.9 2.20649
      vertex 57.2318 12.9 0
    endloop
  endfacet
  facet normal -0.98964 0.104016 -0.0989632
    outer loop
      vertex 56.8356 11.9843 3
      vertex 57.0112 12.9 2.20649
      vertex 57.129 11.9219 0
    endloop
  endfacet
  facet normal -0.98964 0.104014 -0.0989654
    outer loop
      vertex 57.0112 12.9 2.20649
      vertex 56.8356 11.9843 3
      vertex 56.8902 12.504 3
    endloop
  endfacet
  facet normal -0.946388 0.307499 -0.0989644
    outer loop
      vertex 56.328 9.45646 0
      vertex 56.2154 10.0755 3
      vertex 56.974 11.4447 0
    endloop
  endfacet
  facet normal -0.946389 0.307496 -0.0989638
    outer loop
      vertex 56.2154 10.0755 3
      vertex 56.328 9.45646 0
      vertex 56.0539 9.57849 3
    endloop
  endfacet
  facet normal 0.584901 0.805045 -0.0989641
    outer loop
      vertex 36.7028 5.285 0
      vertex 37.3263 5.20075 3
      vertex 38.3941 4.0562 0
    endloop
  endfacet
  facet normal 0.584898 0.805047 -0.0989635
    outer loop
      vertex 37.3263 5.20075 3
      vertex 36.7028 5.285 0
      vertex 36.9035 5.50795 3
    endloop
  endfacet
  facet normal 0.98964 0.104014 -0.0989654
    outer loop
      vertex 33.1644 11.9843 3
      vertex 32.9888 12.9 2.20649
      vertex 33.1098 12.504 3
    endloop
  endfacet
  facet normal 0.98964 0.104015 -0.0989644
    outer loop
      vertex 32.9888 12.9 2.20649
      vertex 33.1644 11.9843 3
      vertex 32.871 11.9219 0
    endloop
  endfacet
  facet normal 0.98964 0.104015 -0.0989643
    outer loop
      vertex 32.9888 12.9 2.20649
      vertex 32.871 11.9219 0
      vertex 32.7682 12.9 0
    endloop
  endfacet
  facet normal 0.946388 0.307499 -0.0989645
    outer loop
      vertex 33.1644 11.9843 3
      vertex 33.026 11.4447 0
      vertex 32.871 11.9219 0
    endloop
  endfacet
  facet normal 0.946388 0.307501 -0.0989647
    outer loop
      vertex 33.026 11.4447 0
      vertex 33.1644 11.9843 3
      vertex 33.7846 10.0755 3
    endloop
  endfacet
  facet normal 0.40474 0.909061 -0.0989642
    outer loop
      vertex 39.2584 3.55721 0
      vertex 38.95 4.02109 3
      vertex 40.7834 3.20479 3
    endloop
  endfacet
  facet normal 0.404741 0.909061 -0.0989642
    outer loop
      vertex 38.95 4.02109 3
      vertex 39.2584 3.55721 0
      vertex 38.8 3.76128 0
    endloop
  endfacet
  facet normal -0.584898 0.805047 -0.0989635
    outer loop
      vertex 53.2972 5.285 0
      vertex 52.6737 5.20075 3
      vertex 53.0965 5.50795 3
    endloop
  endfacet
  facet normal -0.584901 0.805045 -0.0989641
    outer loop
      vertex 52.6737 5.20075 3
      vertex 53.2972 5.285 0
      vertex 51.6059 4.0562 0
    endloop
  endfacet
  facet normal -0.739497 0.665845 -0.0989636
    outer loop
      vertex 53.6329 5.65787 0
      vertex 53.0965 5.50795 3
      vertex 54.4394 6.9994 3
    endloop
  endfacet
  facet normal -0.739496 0.665846 -0.0989634
    outer loop
      vertex 53.0965 5.50795 3
      vertex 53.6329 5.65787 0
      vertex 53.2972 5.285 0
    endloop
  endfacet
  facet normal -0.739497 0.665846 -0.0989642
    outer loop
      vertex 55.0318 7.21146 0
      vertex 54.4394 6.9994 3
      vertex 54.7891 7.3878 3
    endloop
  endfacet
  facet normal -0.739496 0.665846 -0.0989642
    outer loop
      vertex 54.4394 6.9994 3
      vertex 55.0318 7.21146 0
      vertex 53.6329 5.65787 0
    endloop
  endfacet
  facet normal -0.861774 0.497545 -0.098964
    outer loop
      vertex 55.0318 7.21146 0
      vertex 55.0504 7.84042 3
      vertex 56.0771 9.02195 0
    endloop
  endfacet
  facet normal -0.861773 0.497547 -0.0989643
    outer loop
      vertex 55.0504 7.84042 3
      vertex 55.0318 7.21146 0
      vertex 54.7891 7.3878 3
    endloop
  endfacet
  facet normal -0.98964 0.104011 -0.0989669
    outer loop
      vertex 56.9318 12.9 3
      vertex 57.0112 12.9 2.20649
      vertex 56.8902 12.504 3
    endloop
  endfacet
  facet normal 0.739497 0.665846 -0.0989642
    outer loop
      vertex 35.5606 6.9994 3
      vertex 34.9682 7.21146 0
      vertex 35.2109 7.3878 3
    endloop
  endfacet
  facet normal 0.739496 0.665846 -0.0989642
    outer loop
      vertex 34.9682 7.21146 0
      vertex 35.5606 6.9994 3
      vertex 36.3671 5.65787 0
    endloop
  endfacet
  facet normal 0.861773 0.497548 -0.0989639
    outer loop
      vertex 33.9461 9.57849 3
      vertex 33.9229 9.02195 0
      vertex 33.672 9.45646 0
    endloop
  endfacet
  facet normal 0.861774 0.497546 -0.0989635
    outer loop
      vertex 33.9229 9.02195 0
      vertex 33.9461 9.57849 3
      vertex 34.9496 7.84042 3
    endloop
  endfacet
  facet normal 0.861773 0.497547 -0.0989643
    outer loop
      vertex 34.9682 7.21146 0
      vertex 34.9496 7.84042 3
      vertex 35.2109 7.3878 3
    endloop
  endfacet
  facet normal 0.861774 0.497545 -0.098964
    outer loop
      vertex 34.9496 7.84042 3
      vertex 34.9682 7.21146 0
      vertex 33.9229 9.02195 0
    endloop
  endfacet
  facet normal 0.989639 0.104021 -0.0989621
    outer loop
      vertex 33.0682 12.9 3
      vertex 33.1098 12.504 3
      vertex 32.9888 12.9 2.20649
    endloop
  endfacet
  facet normal -0.206891 0.973346 -0.0989641
    outer loop
      vertex 46.7869 2.27224 0
      vertex 46.2648 2.46628 3
      vertex 48.2279 2.88355 3
    endloop
  endfacet
  facet normal -0.206891 0.973346 -0.0989641
    outer loop
      vertex 46.2648 2.46628 3
      vertex 46.7869 2.27224 0
      vertex 46.2962 2.16793 0
    endloop
  endfacet
  facet normal 0.404739 0.909061 -0.0989638
    outer loop
      vertex 41.1682 2.7069 0
      vertex 40.7834 3.20479 3
      vertex 41.2609 2.99222 3
    endloop
  endfacet
  facet normal 0.404739 0.909061 -0.0989637
    outer loop
      vertex 40.7834 3.20479 3
      vertex 41.1682 2.7069 0
      vertex 39.2584 3.55721 0
    endloop
  endfacet
  facet normal 0.206891 0.973346 -0.0989637
    outer loop
      vertex 41.1682 2.7069 0
      vertex 41.7721 2.88355 3
      vertex 43.2131 2.27224 0
    endloop
  endfacet
  facet normal 0.206892 0.973346 -0.0989638
    outer loop
      vertex 41.7721 2.88355 3
      vertex 41.1682 2.7069 0
      vertex 41.2609 2.99222 3
    endloop
  endfacet
  facet normal -0.5849 0.805045 -0.0989645
    outer loop
      vertex 51.6059 4.0562 0
      vertex 51.05 4.02109 3
      vertex 52.6737 5.20075 3
    endloop
  endfacet
  facet normal -0.584899 0.805046 -0.0989643
    outer loop
      vertex 51.05 4.02109 3
      vertex 51.6059 4.0562 0
      vertex 51.2 3.76128 0
    endloop
  endfacet
  facet normal 0.584899 0.805046 -0.0989643
    outer loop
      vertex 38.3941 4.0562 0
      vertex 38.95 4.02109 3
      vertex 38.8 3.76128 0
    endloop
  endfacet
  facet normal 0.5849 0.805045 -0.0989645
    outer loop
      vertex 38.95 4.02109 3
      vertex 38.3941 4.0562 0
      vertex 37.3263 5.20075 3
    endloop
  endfacet
  facet normal -0.206891 0.973346 -0.0989638
    outer loop
      vertex 48.8318 2.7069 0
      vertex 48.2279 2.88355 3
      vertex 48.7391 2.99222 3
    endloop
  endfacet
  facet normal -0.206891 0.973346 -0.0989639
    outer loop
      vertex 48.2279 2.88355 3
      vertex 48.8318 2.7069 0
      vertex 46.7869 2.27224 0
    endloop
  endfacet
  facet normal -0.404739 0.909061 -0.0989637
    outer loop
      vertex 48.8318 2.7069 0
      vertex 49.2166 3.20479 3
      vertex 50.7416 3.55721 0
    endloop
  endfacet
  facet normal -0.404739 0.909061 -0.0989638
    outer loop
      vertex 49.2166 3.20479 3
      vertex 48.8318 2.7069 0
      vertex 48.7391 2.99222 3
    endloop
  endfacet
  facet normal 0.739497 0.665845 -0.0989636
    outer loop
      vertex 36.9035 5.50795 3
      vertex 36.3671 5.65787 0
      vertex 35.5606 6.9994 3
    endloop
  endfacet
  facet normal 0.739496 0.665846 -0.0989634
    outer loop
      vertex 36.3671 5.65787 0
      vertex 36.9035 5.50795 3
      vertex 36.7028 5.285 0
    endloop
  endfacet
  facet normal 0.946389 0.307496 -0.0989638
    outer loop
      vertex 63.672 9.45646 0
      vertex 63.7846 10.0755 3
      vertex 63.9461 9.57849 3
    endloop
  endfacet
  facet normal 0.946388 0.307501 -0.0989647
    outer loop
      vertex 63.7846 10.0755 3
      vertex 63.672 9.45646 0
      vertex 63.026 11.4447 0
    endloop
  endfacet
  facet normal 0 0.995091 -0.098964
    outer loop
      vertex 76.2962 2.16793 0
      vertex 73.7352 2.46628 3
      vertex 76.2648 2.46628 3
    endloop
  endfacet
  facet normal 0 0.995091 -0.098964
    outer loop
      vertex 73.7352 2.46628 3
      vertex 76.2962 2.16793 0
      vertex 73.7038 2.16793 0
    endloop
  endfacet
  facet normal -0.946388 0.307499 -0.0989633
    outer loop
      vertex 86.974 11.4447 0
      vertex 86.8356 11.9843 3
      vertex 87.129 11.9219 0
    endloop
  endfacet
  facet normal -0.946388 0.307499 -0.0989632
    outer loop
      vertex 86.8356 11.9843 3
      vertex 86.974 11.4447 0
      vertex 86.2154 10.0755 3
    endloop
  endfacet
  facet normal 0.20689 0.973346 -0.0989639
    outer loop
      vertex 73.2131 2.27224 0
      vertex 73.7352 2.46628 3
      vertex 73.7038 2.16793 0
    endloop
  endfacet
  facet normal 0.206891 0.973346 -0.0989641
    outer loop
      vertex 73.7352 2.46628 3
      vertex 73.2131 2.27224 0
      vertex 71.7721 2.88355 3
    endloop
  endfacet
  facet normal -0.404741 0.909061 -0.0989632
    outer loop
      vertex 80.7416 3.55721 0
      vertex 81.05 4.02109 3
      vertex 81.2 3.76128 0
    endloop
  endfacet
  facet normal -0.404739 0.909061 -0.0989635
    outer loop
      vertex 81.05 4.02109 3
      vertex 80.7416 3.55721 0
      vertex 79.2166 3.20479 3
    endloop
  endfacet
  facet normal -0.861773 0.497548 -0.0989639
    outer loop
      vertex 86.0771 9.02195 0
      vertex 86.0539 9.57849 3
      vertex 86.328 9.45646 0
    endloop
  endfacet
  facet normal -0.861773 0.497548 -0.0989638
    outer loop
      vertex 86.0539 9.57849 3
      vertex 86.0771 9.02195 0
      vertex 85.0504 7.84042 3
    endloop
  endfacet
  facet normal -0.989639 0.104018 -0.0989643
    outer loop
      vertex 87.129 11.9219 0
      vertex 87.0112 12.9 2.20649
      vertex 87.2318 12.9 0
    endloop
  endfacet
  facet normal -0.98964 0.104016 -0.0989632
    outer loop
      vertex 86.8356 11.9843 3
      vertex 87.0112 12.9 2.20649
      vertex 87.129 11.9219 0
    endloop
  endfacet
  facet normal -0.98964 0.104007 -0.0989738
    outer loop
      vertex 87.0112 12.9 2.20649
      vertex 86.8356 11.9843 3
      vertex 86.8902 12.504 3
    endloop
  endfacet
  facet normal -0.946388 0.307499 -0.0989632
    outer loop
      vertex 86.328 9.45646 0
      vertex 86.2154 10.0755 3
      vertex 86.974 11.4447 0
    endloop
  endfacet
  facet normal -0.946387 0.307503 -0.0989639
    outer loop
      vertex 86.2154 10.0755 3
      vertex 86.328 9.45646 0
      vertex 86.0539 9.57849 3
    endloop
  endfacet
  facet normal 0.861773 0.497548 -0.0989639
    outer loop
      vertex 63.9461 9.57849 3
      vertex 63.9229 9.02195 0
      vertex 63.672 9.45646 0
    endloop
  endfacet
  facet normal 0.861775 0.497545 -0.0989633
    outer loop
      vertex 63.9229 9.02195 0
      vertex 63.9461 9.57849 3
      vertex 64.9496 7.84042 3
    endloop
  endfacet
  facet normal 0.98964 0.104014 -0.0989654
    outer loop
      vertex 63.1644 11.9843 3
      vertex 62.9888 12.9 2.20649
      vertex 63.1098 12.504 3
    endloop
  endfacet
  facet normal 0.98964 0.104015 -0.0989644
    outer loop
      vertex 62.9888 12.9 2.20649
      vertex 63.1644 11.9843 3
      vertex 62.871 11.9219 0
    endloop
  endfacet
  facet normal 0.98964 0.104015 -0.0989643
    outer loop
      vertex 62.9888 12.9 2.20649
      vertex 62.871 11.9219 0
      vertex 62.7682 12.9 0
    endloop
  endfacet
  facet normal 0.946388 0.307499 -0.0989645
    outer loop
      vertex 63.1644 11.9843 3
      vertex 63.026 11.4447 0
      vertex 62.871 11.9219 0
    endloop
  endfacet
  facet normal 0.946388 0.307501 -0.0989647
    outer loop
      vertex 63.026 11.4447 0
      vertex 63.1644 11.9843 3
      vertex 63.7846 10.0755 3
    endloop
  endfacet
  facet normal 0.404739 0.909061 -0.0989635
    outer loop
      vertex 69.2584 3.55721 0
      vertex 68.95 4.02109 3
      vertex 70.7834 3.20479 3
    endloop
  endfacet
  facet normal 0.404741 0.909061 -0.0989632
    outer loop
      vertex 68.95 4.02109 3
      vertex 69.2584 3.55721 0
      vertex 68.8 3.76128 0
    endloop
  endfacet
  facet normal -0.584898 0.805047 -0.0989635
    outer loop
      vertex 83.2972 5.285 0
      vertex 82.6737 5.20075 3
      vertex 83.0965 5.50795 3
    endloop
  endfacet
  facet normal -0.5849 0.805046 -0.098964
    outer loop
      vertex 82.6737 5.20075 3
      vertex 83.2972 5.285 0
      vertex 81.6059 4.0562 0
    endloop
  endfacet
  facet normal -0.739496 0.665846 -0.0989644
    outer loop
      vertex 83.6329 5.65787 0
      vertex 83.0965 5.50795 3
      vertex 84.4394 6.9994 3
    endloop
  endfacet
  facet normal -0.739493 0.665851 -0.0989635
    outer loop
      vertex 83.0965 5.50795 3
      vertex 83.6329 5.65787 0
      vertex 83.2972 5.285 0
    endloop
  endfacet
  facet normal -0.739497 0.665846 -0.0989624
    outer loop
      vertex 85.0318 7.21146 0
      vertex 84.4394 6.9994 3
      vertex 84.7891 7.3878 3
    endloop
  endfacet
  facet normal -0.739498 0.665844 -0.0989628
    outer loop
      vertex 84.4394 6.9994 3
      vertex 85.0318 7.21146 0
      vertex 83.6329 5.65787 0
    endloop
  endfacet
  facet normal -0.861773 0.497547 -0.0989643
    outer loop
      vertex 85.0318 7.21146 0
      vertex 85.0504 7.84042 3
      vertex 86.0771 9.02195 0
    endloop
  endfacet
  facet normal -0.86178 0.497536 -0.098962
    outer loop
      vertex 85.0504 7.84042 3
      vertex 85.0318 7.21146 0
      vertex 84.7891 7.3878 3
    endloop
  endfacet
  facet normal -0.989639 0.10402 -0.0989668
    outer loop
      vertex 86.9318 12.9 3
      vertex 87.0112 12.9 2.20649
      vertex 86.8902 12.504 3
    endloop
  endfacet
  facet normal 0.739497 0.665846 -0.0989642
    outer loop
      vertex 65.5606 6.9994 3
      vertex 64.9682 7.21146 0
      vertex 65.2109 7.3878 3
    endloop
  endfacet
  facet normal 0.739496 0.665846 -0.0989642
    outer loop
      vertex 64.9682 7.21146 0
      vertex 65.5606 6.9994 3
      vertex 66.3671 5.65787 0
    endloop
  endfacet
  facet normal 0.739496 0.665846 -0.0989644
    outer loop
      vertex 66.9035 5.50795 3
      vertex 66.3671 5.65787 0
      vertex 65.5606 6.9994 3
    endloop
  endfacet
  facet normal 0.739493 0.665851 -0.0989635
    outer loop
      vertex 66.3671 5.65787 0
      vertex 66.9035 5.50795 3
      vertex 66.7028 5.285 0
    endloop
  endfacet
  facet normal 0.861773 0.497547 -0.0989643
    outer loop
      vertex 64.9682 7.21146 0
      vertex 64.9496 7.84042 3
      vertex 65.2109 7.3878 3
    endloop
  endfacet
  facet normal 0.861775 0.497544 -0.0989637
    outer loop
      vertex 64.9496 7.84042 3
      vertex 64.9682 7.21146 0
      vertex 63.9229 9.02195 0
    endloop
  endfacet
  facet normal 0.989639 0.104021 -0.0989621
    outer loop
      vertex 63.0682 12.9 3
      vertex 63.1098 12.504 3
      vertex 62.9888 12.9 2.20649
    endloop
  endfacet
  facet normal -0.206891 0.973346 -0.0989641
    outer loop
      vertex 76.7869 2.27224 0
      vertex 76.2648 2.46628 3
      vertex 78.2279 2.88355 3
    endloop
  endfacet
  facet normal -0.20689 0.973346 -0.0989639
    outer loop
      vertex 76.2648 2.46628 3
      vertex 76.7869 2.27224 0
      vertex 76.2962 2.16793 0
    endloop
  endfacet
  facet normal 0.404742 0.90906 -0.0989638
    outer loop
      vertex 71.1682 2.7069 0
      vertex 70.7834 3.20479 3
      vertex 71.2609 2.99222 3
    endloop
  endfacet
  facet normal 0.40474 0.909061 -0.0989641
    outer loop
      vertex 70.7834 3.20479 3
      vertex 71.1682 2.7069 0
      vertex 69.2584 3.55721 0
    endloop
  endfacet
  facet normal 0.206891 0.973346 -0.0989639
    outer loop
      vertex 71.1682 2.7069 0
      vertex 71.7721 2.88355 3
      vertex 73.2131 2.27224 0
    endloop
  endfacet
  facet normal 0.206891 0.973346 -0.0989638
    outer loop
      vertex 71.7721 2.88355 3
      vertex 71.1682 2.7069 0
      vertex 71.2609 2.99222 3
    endloop
  endfacet
  facet normal -0.584901 0.805045 -0.0989632
    outer loop
      vertex 81.6059 4.0562 0
      vertex 81.05 4.02109 3
      vertex 82.6737 5.20075 3
    endloop
  endfacet
  facet normal -0.584899 0.805046 -0.0989628
    outer loop
      vertex 81.05 4.02109 3
      vertex 81.6059 4.0562 0
      vertex 81.2 3.76128 0
    endloop
  endfacet
  facet normal -0.206891 0.973346 -0.0989638
    outer loop
      vertex 78.8318 2.7069 0
      vertex 78.2279 2.88355 3
      vertex 78.7391 2.99222 3
    endloop
  endfacet
  facet normal -0.206891 0.973346 -0.0989639
    outer loop
      vertex 78.2279 2.88355 3
      vertex 78.8318 2.7069 0
      vertex 76.7869 2.27224 0
    endloop
  endfacet
  facet normal -0.40474 0.909061 -0.0989641
    outer loop
      vertex 78.8318 2.7069 0
      vertex 79.2166 3.20479 3
      vertex 80.7416 3.55721 0
    endloop
  endfacet
  facet normal -0.404742 0.90906 -0.0989638
    outer loop
      vertex 79.2166 3.20479 3
      vertex 78.8318 2.7069 0
      vertex 78.7391 2.99222 3
    endloop
  endfacet
  facet normal 0.5849 0.805046 -0.098964
    outer loop
      vertex 66.7028 5.285 0
      vertex 67.3263 5.20075 3
      vertex 68.3941 4.0562 0
    endloop
  endfacet
  facet normal 0.584898 0.805047 -0.0989635
    outer loop
      vertex 67.3263 5.20075 3
      vertex 66.7028 5.285 0
      vertex 66.9035 5.50795 3
    endloop
  endfacet
  facet normal 0.584899 0.805046 -0.0989628
    outer loop
      vertex 68.3941 4.0562 0
      vertex 68.95 4.02109 3
      vertex 68.8 3.76128 0
    endloop
  endfacet
  facet normal 0.584901 0.805045 -0.0989632
    outer loop
      vertex 68.95 4.02109 3
      vertex 68.3941 4.0562 0
      vertex 67.3263 5.20075 3
    endloop
  endfacet
  facet normal -0.994522 -0.104527 0
    outer loop
      vertex 32.5 3 0
      vertex 32.4454 3.51978 1.8
      vertex 32.4454 3.51978 0
    endloop
  endfacet
  facet normal -0.994522 -0.104527 0
    outer loop
      vertex 32.4454 3.51978 1.8
      vertex 32.5 3 0
      vertex 32.5 3 1.8
    endloop
  endfacet
  facet normal 0 -1 0
    outer loop
      vertex 29.7387 5.4863 0
      vertex 30.2613 5.4863 1.8
      vertex 29.7387 5.4863 1.8
    endloop
  endfacet
  facet normal 0 -1 -0
    outer loop
      vertex 30.2613 5.4863 1.8
      vertex 29.7387 5.4863 0
      vertex 30.2613 5.4863 0
    endloop
  endfacet
  facet normal -0.587787 -0.809016 0
    outer loop
      vertex 31.25 5.16506 0
      vertex 31.6728 4.85786 1.8
      vertex 31.25 5.16506 1.8
    endloop
  endfacet
  facet normal -0.587787 -0.809016 -0
    outer loop
      vertex 31.6728 4.85786 1.8
      vertex 31.25 5.16506 0
      vertex 31.6728 4.85786 0
    endloop
  endfacet
  facet normal 0.743145 -0.669131 0
    outer loop
      vertex 27.9775 4.46946 1.8
      vertex 28.3272 4.85786 0
      vertex 28.3272 4.85786 1.8
    endloop
  endfacet
  facet normal 0.743145 -0.669131 0
    outer loop
      vertex 28.3272 4.85786 0
      vertex 27.9775 4.46946 1.8
      vertex 27.9775 4.46946 0
    endloop
  endfacet
  facet normal 0.406737 -0.913545 0
    outer loop
      vertex 28.75 5.16506 0
      vertex 29.2275 5.37764 1.8
      vertex 28.75 5.16506 1.8
    endloop
  endfacet
  facet normal 0.406737 -0.913545 0
    outer loop
      vertex 29.2275 5.37764 1.8
      vertex 28.75 5.16506 0
      vertex 29.2275 5.37764 0
    endloop
  endfacet
  facet normal -0.866025 -0.500001 0
    outer loop
      vertex 32.2839 4.01684 0
      vertex 32.0225 4.46946 1.8
      vertex 32.0225 4.46946 0
    endloop
  endfacet
  facet normal -0.866025 -0.500001 0
    outer loop
      vertex 32.0225 4.46946 1.8
      vertex 32.2839 4.01684 0
      vertex 32.2839 4.01684 1.8
    endloop
  endfacet
  facet normal -0.951056 -0.30902 0
    outer loop
      vertex 32.4454 3.51978 0
      vertex 32.2839 4.01684 1.8
      vertex 32.2839 4.01684 0
    endloop
  endfacet
  facet normal -0.951056 -0.30902 0
    outer loop
      vertex 32.2839 4.01684 1.8
      vertex 32.4454 3.51978 0
      vertex 32.4454 3.51978 1.8
    endloop
  endfacet
  facet normal -0.743145 -0.669131 0
    outer loop
      vertex 32.0225 4.46946 0
      vertex 31.6728 4.85786 1.8
      vertex 31.6728 4.85786 0
    endloop
  endfacet
  facet normal -0.743145 -0.669131 0
    outer loop
      vertex 31.6728 4.85786 1.8
      vertex 32.0225 4.46946 0
      vertex 32.0225 4.46946 1.8
    endloop
  endfacet
  facet normal -0.207913 -0.978147 0
    outer loop
      vertex 30.2613 5.4863 0
      vertex 30.7725 5.37764 1.8
      vertex 30.2613 5.4863 1.8
    endloop
  endfacet
  facet normal -0.207913 -0.978147 -0
    outer loop
      vertex 30.7725 5.37764 1.8
      vertex 30.2613 5.4863 0
      vertex 30.7725 5.37764 0
    endloop
  endfacet
  facet normal -0.406736 -0.913546 0
    outer loop
      vertex 30.7725 5.37764 0
      vertex 31.25 5.16506 1.8
      vertex 30.7725 5.37764 1.8
    endloop
  endfacet
  facet normal -0.406736 -0.913546 -0
    outer loop
      vertex 31.25 5.16506 1.8
      vertex 30.7725 5.37764 0
      vertex 31.25 5.16506 0
    endloop
  endfacet
  facet normal 0.951056 -0.30902 0
    outer loop
      vertex 27.5546 3.51978 1.8
      vertex 27.7161 4.01684 0
      vertex 27.7161 4.01684 1.8
    endloop
  endfacet
  facet normal 0.951056 -0.30902 0
    outer loop
      vertex 27.7161 4.01684 0
      vertex 27.5546 3.51978 1.8
      vertex 27.5546 3.51978 0
    endloop
  endfacet
  facet normal 0.866026 -0.499999 0
    outer loop
      vertex 27.7161 4.01684 1.8
      vertex 27.9775 4.46946 0
      vertex 27.9775 4.46946 1.8
    endloop
  endfacet
  facet normal 0.866026 -0.499999 0
    outer loop
      vertex 27.9775 4.46946 0
      vertex 27.7161 4.01684 1.8
      vertex 27.7161 4.01684 0
    endloop
  endfacet
  facet normal 0.994522 -0.104527 0
    outer loop
      vertex 27.5 3 1.8
      vertex 27.5546 3.51978 0
      vertex 27.5546 3.51978 1.8
    endloop
  endfacet
  facet normal 0.994522 -0.104527 0
    outer loop
      vertex 27.5546 3.51978 0
      vertex 27.5 3 1.8
      vertex 27.5 3 0
    endloop
  endfacet
  facet normal 0 0 -1
    outer loop
      vertex 32.4454 2.48022 1.8
      vertex 32.4454 3.51978 1.8
      vertex 32.5 3 1.8
    endloop
  endfacet
  facet normal 0 0 -1
    outer loop
      vertex 32.2839 1.98316 1.8
      vertex 32.4454 3.51978 1.8
      vertex 32.4454 2.48022 1.8
    endloop
  endfacet
  facet normal 0 0 -1
    outer loop
      vertex 32.2839 1.98316 1.8
      vertex 32.2839 4.01684 1.8
      vertex 32.4454 3.51978 1.8
    endloop
  endfacet
  facet normal 0 0 -1
    outer loop
      vertex 32.0225 1.53054 1.8
      vertex 32.2839 4.01684 1.8
      vertex 32.2839 1.98316 1.8
    endloop
  endfacet
  facet normal 0 0 -1
    outer loop
      vertex 32.0225 1.53054 1.8
      vertex 32.0225 4.46946 1.8
      vertex 32.2839 4.01684 1.8
    endloop
  endfacet
  facet normal 0 0 -1
    outer loop
      vertex 31.6728 1.14214 1.8
      vertex 32.0225 4.46946 1.8
      vertex 32.0225 1.53054 1.8
    endloop
  endfacet
  facet normal 0 0 -1
    outer loop
      vertex 31.6728 1.14214 1.8
      vertex 31.6728 4.85786 1.8
      vertex 32.0225 4.46946 1.8
    endloop
  endfacet
  facet normal 0 0 -1
    outer loop
      vertex 31.25 0.834936 1.8
      vertex 31.6728 4.85786 1.8
      vertex 31.6728 1.14214 1.8
    endloop
  endfacet
  facet normal 0 0 -1
    outer loop
      vertex 31.25 0.834936 1.8
      vertex 31.25 5.16506 1.8
      vertex 31.6728 4.85786 1.8
    endloop
  endfacet
  facet normal 0 0 -1
    outer loop
      vertex 30.7725 0.622358 1.8
      vertex 31.25 5.16506 1.8
      vertex 31.25 0.834936 1.8
    endloop
  endfacet
  facet normal 0 0 -1
    outer loop
      vertex 30.7725 0.622358 1.8
      vertex 30.7725 5.37764 1.8
      vertex 31.25 5.16506 1.8
    endloop
  endfacet
  facet normal 0 0 -1
    outer loop
      vertex 30.2613 0.513695 1.8
      vertex 30.7725 5.37764 1.8
      vertex 30.7725 0.622358 1.8
    endloop
  endfacet
  facet normal 0 0 -1
    outer loop
      vertex 30.2613 0.513695 1.8
      vertex 30.2613 5.4863 1.8
      vertex 30.7725 5.37764 1.8
    endloop
  endfacet
  facet normal 0 0 -1
    outer loop
      vertex 29.7387 0.513695 1.8
      vertex 30.2613 5.4863 1.8
      vertex 30.2613 0.513695 1.8
    endloop
  endfacet
  facet normal 0 0 -1
    outer loop
      vertex 29.7387 0.513695 1.8
      vertex 29.7387 5.4863 1.8
      vertex 30.2613 5.4863 1.8
    endloop
  endfacet
  facet normal 0 0 -1
    outer loop
      vertex 29.2275 0.622358 1.8
      vertex 29.7387 5.4863 1.8
      vertex 29.7387 0.513695 1.8
    endloop
  endfacet
  facet normal 0 0 -1
    outer loop
      vertex 29.2275 0.622358 1.8
      vertex 29.2275 5.37764 1.8
      vertex 29.7387 5.4863 1.8
    endloop
  endfacet
  facet normal 0 0 -1
    outer loop
      vertex 28.75 0.834936 1.8
      vertex 29.2275 5.37764 1.8
      vertex 29.2275 0.622358 1.8
    endloop
  endfacet
  facet normal 0 0 -1
    outer loop
      vertex 28.75 0.834936 1.8
      vertex 28.75 5.16506 1.8
      vertex 29.2275 5.37764 1.8
    endloop
  endfacet
  facet normal 0 0 -1
    outer loop
      vertex 28.3272 1.14214 1.8
      vertex 28.75 5.16506 1.8
      vertex 28.75 0.834936 1.8
    endloop
  endfacet
  facet normal 0 0 -1
    outer loop
      vertex 28.3272 1.14214 1.8
      vertex 28.3272 4.85786 1.8
      vertex 28.75 5.16506 1.8
    endloop
  endfacet
  facet normal 0 0 -1
    outer loop
      vertex 27.9775 1.53054 1.8
      vertex 28.3272 4.85786 1.8
      vertex 28.3272 1.14214 1.8
    endloop
  endfacet
  facet normal 0 0 -1
    outer loop
      vertex 27.9775 1.53054 1.8
      vertex 27.9775 4.46946 1.8
      vertex 28.3272 4.85786 1.8
    endloop
  endfacet
  facet normal 0 0 -1
    outer loop
      vertex 27.7161 1.98316 1.8
      vertex 27.9775 4.46946 1.8
      vertex 27.9775 1.53054 1.8
    endloop
  endfacet
  facet normal 0 0 -1
    outer loop
      vertex 27.7161 1.98316 1.8
      vertex 27.7161 4.01684 1.8
      vertex 27.9775 4.46946 1.8
    endloop
  endfacet
  facet normal 0 0 -1
    outer loop
      vertex 27.5546 2.48022 1.8
      vertex 27.7161 4.01684 1.8
      vertex 27.7161 1.98316 1.8
    endloop
  endfacet
  facet normal 0 0 -1
    outer loop
      vertex 27.5546 2.48022 1.8
      vertex 27.5546 3.51978 1.8
      vertex 27.7161 4.01684 1.8
    endloop
  endfacet
  facet normal 0 -0 -1
    outer loop
      vertex 27.5546 3.51978 1.8
      vertex 27.5546 2.48022 1.8
      vertex 27.5 3 1.8
    endloop
  endfacet
  facet normal 0.587785 -0.809017 0
    outer loop
      vertex 28.3272 4.85786 0
      vertex 28.75 5.16506 1.8
      vertex 28.3272 4.85786 1.8
    endloop
  endfacet
  facet normal 0.587785 -0.809017 0
    outer loop
      vertex 28.75 5.16506 1.8
      vertex 28.3272 4.85786 0
      vertex 28.75 5.16506 0
    endloop
  endfacet
  facet normal 0.207912 -0.978148 0
    outer loop
      vertex 29.2275 5.37764 0
      vertex 29.7387 5.4863 1.8
      vertex 29.2275 5.37764 1.8
    endloop
  endfacet
  facet normal 0.207912 -0.978148 0
    outer loop
      vertex 29.7387 5.4863 1.8
      vertex 29.2275 5.37764 0
      vertex 29.7387 5.4863 0
    endloop
  endfacet
  facet normal -0.994522 0.104527 0
    outer loop
      vertex 32.4454 2.48022 0
      vertex 32.5 3 1.8
      vertex 32.5 3 0
    endloop
  endfacet
  facet normal -0.994522 0.104527 0
    outer loop
      vertex 32.5 3 1.8
      vertex 32.4454 2.48022 0
      vertex 32.4454 2.48022 1.8
    endloop
  endfacet
  facet normal -0.207913 0.978147 0
    outer loop
      vertex 30.7725 0.622358 0
      vertex 30.2613 0.513695 1.8
      vertex 30.7725 0.622358 1.8
    endloop
  endfacet
  facet normal -0.207913 0.978147 0
    outer loop
      vertex 30.2613 0.513695 1.8
      vertex 30.7725 0.622358 0
      vertex 30.2613 0.513695 0
    endloop
  endfacet
  facet normal -0.587787 0.809016 0
    outer loop
      vertex 31.6728 1.14214 0
      vertex 31.25 0.834936 1.8
      vertex 31.6728 1.14214 1.8
    endloop
  endfacet
  facet normal -0.587787 0.809016 0
    outer loop
      vertex 31.25 0.834936 1.8
      vertex 31.6728 1.14214 0
      vertex 31.25 0.834936 0
    endloop
  endfacet
  facet normal 0.587785 0.809017 -0
    outer loop
      vertex 28.75 0.834936 0
      vertex 28.3272 1.14214 1.8
      vertex 28.75 0.834936 1.8
    endloop
  endfacet
  facet normal 0.587785 0.809017 0
    outer loop
      vertex 28.3272 1.14214 1.8
      vertex 28.75 0.834936 0
      vertex 28.3272 1.14214 0
    endloop
  endfacet
  facet normal 0.207912 0.978148 -0
    outer loop
      vertex 29.7387 0.513695 0
      vertex 29.2275 0.622358 1.8
      vertex 29.7387 0.513695 1.8
    endloop
  endfacet
  facet normal 0.207912 0.978148 0
    outer loop
      vertex 29.2275 0.622358 1.8
      vertex 29.7387 0.513695 0
      vertex 29.2275 0.622358 0
    endloop
  endfacet
  facet normal 0.743145 0.669131 0
    outer loop
      vertex 28.3272 1.14214 1.8
      vertex 27.9775 1.53054 0
      vertex 27.9775 1.53054 1.8
    endloop
  endfacet
  facet normal 0.743145 0.669131 0
    outer loop
      vertex 27.9775 1.53054 0
      vertex 28.3272 1.14214 1.8
      vertex 28.3272 1.14214 0
    endloop
  endfacet
  facet normal 0.951056 0.30902 0
    outer loop
      vertex 27.7161 1.98316 1.8
      vertex 27.5546 2.48022 0
      vertex 27.5546 2.48022 1.8
    endloop
  endfacet
  facet normal 0.951056 0.30902 0
    outer loop
      vertex 27.5546 2.48022 0
      vertex 27.7161 1.98316 1.8
      vertex 27.7161 1.98316 0
    endloop
  endfacet
  facet normal 0.994522 0.104527 0
    outer loop
      vertex 27.5546 2.48022 1.8
      vertex 27.5 3 0
      vertex 27.5 3 1.8
    endloop
  endfacet
  facet normal 0.994522 0.104527 0
    outer loop
      vertex 27.5 3 0
      vertex 27.5546 2.48022 1.8
      vertex 27.5546 2.48022 0
    endloop
  endfacet
  facet normal -0.406736 0.913546 0
    outer loop
      vertex 31.25 0.834936 0
      vertex 30.7725 0.622358 1.8
      vertex 31.25 0.834936 1.8
    endloop
  endfacet
  facet normal -0.406736 0.913546 0
    outer loop
      vertex 30.7725 0.622358 1.8
      vertex 31.25 0.834936 0
      vertex 30.7725 0.622358 0
    endloop
  endfacet
  facet normal -0.743145 0.669131 0
    outer loop
      vertex 31.6728 1.14214 0
      vertex 32.0225 1.53054 1.8
      vertex 32.0225 1.53054 0
    endloop
  endfacet
  facet normal -0.743145 0.669131 0
    outer loop
      vertex 32.0225 1.53054 1.8
      vertex 31.6728 1.14214 0
      vertex 31.6728 1.14214 1.8
    endloop
  endfacet
  facet normal -0.951056 0.30902 0
    outer loop
      vertex 32.2839 1.98316 0
      vertex 32.4454 2.48022 1.8
      vertex 32.4454 2.48022 0
    endloop
  endfacet
  facet normal -0.951056 0.30902 0
    outer loop
      vertex 32.4454 2.48022 1.8
      vertex 32.2839 1.98316 0
      vertex 32.2839 1.98316 1.8
    endloop
  endfacet
  facet normal -0.866025 0.500001 0
    outer loop
      vertex 32.0225 1.53054 0
      vertex 32.2839 1.98316 1.8
      vertex 32.2839 1.98316 0
    endloop
  endfacet
  facet normal -0.866025 0.500001 0
    outer loop
      vertex 32.2839 1.98316 1.8
      vertex 32.0225 1.53054 0
      vertex 32.0225 1.53054 1.8
    endloop
  endfacet
  facet normal 0.406737 0.913545 -0
    outer loop
      vertex 29.2275 0.622358 0
      vertex 28.75 0.834936 1.8
      vertex 29.2275 0.622358 1.8
    endloop
  endfacet
  facet normal 0.406737 0.913545 0
    outer loop
      vertex 28.75 0.834936 1.8
      vertex 29.2275 0.622358 0
      vertex 28.75 0.834936 0
    endloop
  endfacet
  facet normal 0 1 -0
    outer loop
      vertex 30.2613 0.513695 0
      vertex 29.7387 0.513695 1.8
      vertex 30.2613 0.513695 1.8
    endloop
  endfacet
  facet normal 0 1 0
    outer loop
      vertex 29.7387 0.513695 1.8
      vertex 30.2613 0.513695 0
      vertex 29.7387 0.513695 0
    endloop
  endfacet
  facet normal 0.866026 0.499999 0
    outer loop
      vertex 27.9775 1.53054 1.8
      vertex 27.7161 1.98316 0
      vertex 27.7161 1.98316 1.8
    endloop
  endfacet
  facet normal 0.866026 0.499999 0
    outer loop
      vertex 27.7161 1.98316 0
      vertex 27.9775 1.53054 1.8
      vertex 27.9775 1.53054 0
    endloop
  endfacet
  facet normal -0.406736 -0.913546 0
    outer loop
      vertex 60.7725 5.37764 0
      vertex 61.25 5.16506 1.8
      vertex 60.7725 5.37764 1.8
    endloop
  endfacet
  facet normal -0.406736 -0.913546 -0
    outer loop
      vertex 61.25 5.16506 1.8
      vertex 60.7725 5.37764 0
      vertex 61.25 5.16506 0
    endloop
  endfacet
  facet normal 0.994522 -0.104527 0
    outer loop
      vertex 57.5 3 1.8
      vertex 57.5546 3.51978 0
      vertex 57.5546 3.51978 1.8
    endloop
  endfacet
  facet normal 0.994522 -0.104527 0
    outer loop
      vertex 57.5546 3.51978 0
      vertex 57.5 3 1.8
      vertex 57.5 3 0
    endloop
  endfacet
  facet normal -0.994522 0.104527 0
    outer loop
      vertex 62.4454 2.48022 0
      vertex 62.5 3 1.8
      vertex 62.5 3 0
    endloop
  endfacet
  facet normal -0.994522 0.104527 0
    outer loop
      vertex 62.5 3 1.8
      vertex 62.4454 2.48022 0
      vertex 62.4454 2.48022 1.8
    endloop
  endfacet
  facet normal 0.207911 0.978148 -0
    outer loop
      vertex 59.7387 0.513695 0
      vertex 59.2275 0.622358 1.8
      vertex 59.7387 0.513695 1.8
    endloop
  endfacet
  facet normal 0.207911 0.978148 0
    outer loop
      vertex 59.2275 0.622358 1.8
      vertex 59.7387 0.513695 0
      vertex 59.2275 0.622358 0
    endloop
  endfacet
  facet normal 0 -1 0
    outer loop
      vertex 59.7387 5.4863 0
      vertex 60.2613 5.4863 1.8
      vertex 59.7387 5.4863 1.8
    endloop
  endfacet
  facet normal 0 -1 -0
    outer loop
      vertex 60.2613 5.4863 1.8
      vertex 59.7387 5.4863 0
      vertex 60.2613 5.4863 0
    endloop
  endfacet
  facet normal 0.406738 -0.913545 0
    outer loop
      vertex 58.75 5.16506 0
      vertex 59.2275 5.37764 1.8
      vertex 58.75 5.16506 1.8
    endloop
  endfacet
  facet normal 0.406738 -0.913545 0
    outer loop
      vertex 59.2275 5.37764 1.8
      vertex 58.75 5.16506 0
      vertex 59.2275 5.37764 0
    endloop
  endfacet
  facet normal 0.951056 -0.30902 0
    outer loop
      vertex 57.5546 3.51978 1.8
      vertex 57.7161 4.01684 0
      vertex 57.7161 4.01684 1.8
    endloop
  endfacet
  facet normal 0.951056 -0.30902 0
    outer loop
      vertex 57.7161 4.01684 0
      vertex 57.5546 3.51978 1.8
      vertex 57.5546 3.51978 0
    endloop
  endfacet
  facet normal -0.951056 -0.30902 0
    outer loop
      vertex 62.4454 3.51978 0
      vertex 62.2839 4.01684 1.8
      vertex 62.2839 4.01684 0
    endloop
  endfacet
  facet normal -0.951056 -0.30902 0
    outer loop
      vertex 62.2839 4.01684 1.8
      vertex 62.4454 3.51978 0
      vertex 62.4454 3.51978 1.8
    endloop
  endfacet
  facet normal -0.866025 -0.500001 0
    outer loop
      vertex 62.2839 4.01684 0
      vertex 62.0225 4.46946 1.8
      vertex 62.0225 4.46946 0
    endloop
  endfacet
  facet normal -0.866025 -0.500001 0
    outer loop
      vertex 62.0225 4.46946 1.8
      vertex 62.2839 4.01684 0
      vertex 62.2839 4.01684 1.8
    endloop
  endfacet
  facet normal -0.743145 -0.669131 0
    outer loop
      vertex 62.0225 4.46946 0
      vertex 61.6728 4.85786 1.8
      vertex 61.6728 4.85786 0
    endloop
  endfacet
  facet normal -0.743145 -0.669131 0
    outer loop
      vertex 61.6728 4.85786 1.8
      vertex 62.0225 4.46946 0
      vertex 62.0225 4.46946 1.8
    endloop
  endfacet
  facet normal -0.587787 -0.809016 0
    outer loop
      vertex 61.25 5.16506 0
      vertex 61.6728 4.85786 1.8
      vertex 61.25 5.16506 1.8
    endloop
  endfacet
  facet normal -0.587787 -0.809016 -0
    outer loop
      vertex 61.6728 4.85786 1.8
      vertex 61.25 5.16506 0
      vertex 61.6728 4.85786 0
    endloop
  endfacet
  facet normal -0.207913 -0.978147 0
    outer loop
      vertex 60.2613 5.4863 0
      vertex 60.7725 5.37764 1.8
      vertex 60.2613 5.4863 1.8
    endloop
  endfacet
  facet normal -0.207913 -0.978147 -0
    outer loop
      vertex 60.7725 5.37764 1.8
      vertex 60.2613 5.4863 0
      vertex 60.7725 5.37764 0
    endloop
  endfacet
  facet normal 0.994522 0.104527 0
    outer loop
      vertex 57.5546 2.48022 1.8
      vertex 57.5 3 0
      vertex 57.5 3 1.8
    endloop
  endfacet
  facet normal 0.994522 0.104527 0
    outer loop
      vertex 57.5 3 0
      vertex 57.5546 2.48022 1.8
      vertex 57.5546 2.48022 0
    endloop
  endfacet
  facet normal 0.866028 -0.499996 0
    outer loop
      vertex 57.7161 4.01684 1.8
      vertex 57.9775 4.46946 0
      vertex 57.9775 4.46946 1.8
    endloop
  endfacet
  facet normal 0.866028 -0.499996 0
    outer loop
      vertex 57.9775 4.46946 0
      vertex 57.7161 4.01684 1.8
      vertex 57.7161 4.01684 0
    endloop
  endfacet
  facet normal 0.587783 -0.809018 0
    outer loop
      vertex 58.3272 4.85786 0
      vertex 58.75 5.16506 1.8
      vertex 58.3272 4.85786 1.8
    endloop
  endfacet
  facet normal 0.587783 -0.809018 0
    outer loop
      vertex 58.75 5.16506 1.8
      vertex 58.3272 4.85786 0
      vertex 58.75 5.16506 0
    endloop
  endfacet
  facet normal 0.207911 -0.978148 0
    outer loop
      vertex 59.2275 5.37764 0
      vertex 59.7387 5.4863 1.8
      vertex 59.2275 5.37764 1.8
    endloop
  endfacet
  facet normal 0.207911 -0.978148 0
    outer loop
      vertex 59.7387 5.4863 1.8
      vertex 59.2275 5.37764 0
      vertex 59.7387 5.4863 0
    endloop
  endfacet
  facet normal 0.743145 -0.669131 0
    outer loop
      vertex 57.9775 4.46946 1.8
      vertex 58.3272 4.85786 0
      vertex 58.3272 4.85786 1.8
    endloop
  endfacet
  facet normal 0.743145 -0.669131 0
    outer loop
      vertex 58.3272 4.85786 0
      vertex 57.9775 4.46946 1.8
      vertex 57.9775 4.46946 0
    endloop
  endfacet
  facet normal -0.994522 -0.104527 0
    outer loop
      vertex 62.5 3 0
      vertex 62.4454 3.51978 1.8
      vertex 62.4454 3.51978 0
    endloop
  endfacet
  facet normal -0.994522 -0.104527 0
    outer loop
      vertex 62.4454 3.51978 1.8
      vertex 62.5 3 0
      vertex 62.5 3 1.8
    endloop
  endfacet
  facet normal -0.207913 0.978147 0
    outer loop
      vertex 60.7725 0.622358 0
      vertex 60.2613 0.513695 1.8
      vertex 60.7725 0.622358 1.8
    endloop
  endfacet
  facet normal -0.207913 0.978147 0
    outer loop
      vertex 60.2613 0.513695 1.8
      vertex 60.7725 0.622358 0
      vertex 60.2613 0.513695 0
    endloop
  endfacet
  facet normal -0.406736 0.913546 0
    outer loop
      vertex 61.25 0.834936 0
      vertex 60.7725 0.622358 1.8
      vertex 61.25 0.834936 1.8
    endloop
  endfacet
  facet normal -0.406736 0.913546 0
    outer loop
      vertex 60.7725 0.622358 1.8
      vertex 61.25 0.834936 0
      vertex 60.7725 0.622358 0
    endloop
  endfacet
  facet normal -0.587787 0.809016 0
    outer loop
      vertex 61.6728 1.14214 0
      vertex 61.25 0.834936 1.8
      vertex 61.6728 1.14214 1.8
    endloop
  endfacet
  facet normal -0.587787 0.809016 0
    outer loop
      vertex 61.25 0.834936 1.8
      vertex 61.6728 1.14214 0
      vertex 61.25 0.834936 0
    endloop
  endfacet
  facet normal -0.866025 0.500001 0
    outer loop
      vertex 62.0225 1.53054 0
      vertex 62.2839 1.98316 1.8
      vertex 62.2839 1.98316 0
    endloop
  endfacet
  facet normal -0.866025 0.500001 0
    outer loop
      vertex 62.2839 1.98316 1.8
      vertex 62.0225 1.53054 0
      vertex 62.0225 1.53054 1.8
    endloop
  endfacet
  facet normal 0 1 -0
    outer loop
      vertex 60.2613 0.513695 0
      vertex 59.7387 0.513695 1.8
      vertex 60.2613 0.513695 1.8
    endloop
  endfacet
  facet normal 0 1 0
    outer loop
      vertex 59.7387 0.513695 1.8
      vertex 60.2613 0.513695 0
      vertex 59.7387 0.513695 0
    endloop
  endfacet
  facet normal 0.587783 0.809018 -0
    outer loop
      vertex 58.75 0.834936 0
      vertex 58.3272 1.14214 1.8
      vertex 58.75 0.834936 1.8
    endloop
  endfacet
  facet normal 0.587783 0.809018 0
    outer loop
      vertex 58.3272 1.14214 1.8
      vertex 58.75 0.834936 0
      vertex 58.3272 1.14214 0
    endloop
  endfacet
  facet normal 0.743145 0.669131 0
    outer loop
      vertex 58.3272 1.14214 1.8
      vertex 57.9775 1.53054 0
      vertex 57.9775 1.53054 1.8
    endloop
  endfacet
  facet normal 0.743145 0.669131 0
    outer loop
      vertex 57.9775 1.53054 0
      vertex 58.3272 1.14214 1.8
      vertex 58.3272 1.14214 0
    endloop
  endfacet
  facet normal 0.951056 0.30902 0
    outer loop
      vertex 57.7161 1.98316 1.8
      vertex 57.5546 2.48022 0
      vertex 57.5546 2.48022 1.8
    endloop
  endfacet
  facet normal 0.951056 0.30902 0
    outer loop
      vertex 57.5546 2.48022 0
      vertex 57.7161 1.98316 1.8
      vertex 57.7161 1.98316 0
    endloop
  endfacet
  facet normal 0 0 -1
    outer loop
      vertex 62.4454 2.48022 1.8
      vertex 62.4454 3.51978 1.8
      vertex 62.5 3 1.8
    endloop
  endfacet
  facet normal 0 0 -1
    outer loop
      vertex 62.2839 1.98316 1.8
      vertex 62.4454 3.51978 1.8
      vertex 62.4454 2.48022 1.8
    endloop
  endfacet
  facet normal 0 0 -1
    outer loop
      vertex 62.2839 1.98316 1.8
      vertex 62.2839 4.01684 1.8
      vertex 62.4454 3.51978 1.8
    endloop
  endfacet
  facet normal 0 0 -1
    outer loop
      vertex 62.0225 1.53054 1.8
      vertex 62.2839 4.01684 1.8
      vertex 62.2839 1.98316 1.8
    endloop
  endfacet
  facet normal 0 0 -1
    outer loop
      vertex 62.0225 1.53054 1.8
      vertex 62.0225 4.46946 1.8
      vertex 62.2839 4.01684 1.8
    endloop
  endfacet
  facet normal 0 0 -1
    outer loop
      vertex 61.6728 1.14214 1.8
      vertex 62.0225 4.46946 1.8
      vertex 62.0225 1.53054 1.8
    endloop
  endfacet
  facet normal 0 0 -1
    outer loop
      vertex 61.6728 1.14214 1.8
      vertex 61.6728 4.85786 1.8
      vertex 62.0225 4.46946 1.8
    endloop
  endfacet
  facet normal 0 0 -1
    outer loop
      vertex 61.25 0.834936 1.8
      vertex 61.6728 4.85786 1.8
      vertex 61.6728 1.14214 1.8
    endloop
  endfacet
  facet normal 0 0 -1
    outer loop
      vertex 61.25 0.834936 1.8
      vertex 61.25 5.16506 1.8
      vertex 61.6728 4.85786 1.8
    endloop
  endfacet
  facet normal 0 0 -1
    outer loop
      vertex 60.7725 0.622358 1.8
      vertex 61.25 5.16506 1.8
      vertex 61.25 0.834936 1.8
    endloop
  endfacet
  facet normal 0 0 -1
    outer loop
      vertex 60.7725 0.622358 1.8
      vertex 60.7725 5.37764 1.8
      vertex 61.25 5.16506 1.8
    endloop
  endfacet
  facet normal 0 0 -1
    outer loop
      vertex 60.2613 0.513695 1.8
      vertex 60.7725 5.37764 1.8
      vertex 60.7725 0.622358 1.8
    endloop
  endfacet
  facet normal 0 0 -1
    outer loop
      vertex 60.2613 0.513695 1.8
      vertex 60.2613 5.4863 1.8
      vertex 60.7725 5.37764 1.8
    endloop
  endfacet
  facet normal 0 0 -1
    outer loop
      vertex 59.7387 0.513695 1.8
      vertex 60.2613 5.4863 1.8
      vertex 60.2613 0.513695 1.8
    endloop
  endfacet
  facet normal 0 0 -1
    outer loop
      vertex 59.7387 0.513695 1.8
      vertex 59.7387 5.4863 1.8
      vertex 60.2613 5.4863 1.8
    endloop
  endfacet
  facet normal 0 0 -1
    outer loop
      vertex 59.2275 0.622358 1.8
      vertex 59.7387 5.4863 1.8
      vertex 59.7387 0.513695 1.8
    endloop
  endfacet
  facet normal 0 0 -1
    outer loop
      vertex 59.2275 0.622358 1.8
      vertex 59.2275 5.37764 1.8
      vertex 59.7387 5.4863 1.8
    endloop
  endfacet
  facet normal 0 0 -1
    outer loop
      vertex 58.75 0.834936 1.8
      vertex 59.2275 5.37764 1.8
      vertex 59.2275 0.622358 1.8
    endloop
  endfacet
  facet normal 0 0 -1
    outer loop
      vertex 58.75 0.834936 1.8
      vertex 58.75 5.16506 1.8
      vertex 59.2275 5.37764 1.8
    endloop
  endfacet
  facet normal 0 0 -1
    outer loop
      vertex 58.3272 1.14214 1.8
      vertex 58.75 5.16506 1.8
      vertex 58.75 0.834936 1.8
    endloop
  endfacet
  facet normal 0 0 -1
    outer loop
      vertex 58.3272 1.14214 1.8
      vertex 58.3272 4.85786 1.8
      vertex 58.75 5.16506 1.8
    endloop
  endfacet
  facet normal 0 0 -1
    outer loop
      vertex 57.9775 1.53054 1.8
      vertex 58.3272 4.85786 1.8
      vertex 58.3272 1.14214 1.8
    endloop
  endfacet
  facet normal 0 0 -1
    outer loop
      vertex 57.9775 1.53054 1.8
      vertex 57.9775 4.46946 1.8
      vertex 58.3272 4.85786 1.8
    endloop
  endfacet
  facet normal 0 0 -1
    outer loop
      vertex 57.7161 1.98316 1.8
      vertex 57.9775 4.46946 1.8
      vertex 57.9775 1.53054 1.8
    endloop
  endfacet
  facet normal 0 0 -1
    outer loop
      vertex 57.7161 1.98316 1.8
      vertex 57.7161 4.01684 1.8
      vertex 57.9775 4.46946 1.8
    endloop
  endfacet
  facet normal 0 0 -1
    outer loop
      vertex 57.5546 2.48022 1.8
      vertex 57.7161 4.01684 1.8
      vertex 57.7161 1.98316 1.8
    endloop
  endfacet
  facet normal 0 0 -1
    outer loop
      vertex 57.5546 2.48022 1.8
      vertex 57.5546 3.51978 1.8
      vertex 57.7161 4.01684 1.8
    endloop
  endfacet
  facet normal 0 -0 -1
    outer loop
      vertex 57.5546 3.51978 1.8
      vertex 57.5546 2.48022 1.8
      vertex 57.5 3 1.8
    endloop
  endfacet
  facet normal -0.743145 0.669131 0
    outer loop
      vertex 61.6728 1.14214 0
      vertex 62.0225 1.53054 1.8
      vertex 62.0225 1.53054 0
    endloop
  endfacet
  facet normal -0.743145 0.669131 0
    outer loop
      vertex 62.0225 1.53054 1.8
      vertex 61.6728 1.14214 0
      vertex 61.6728 1.14214 1.8
    endloop
  endfacet
  facet normal -0.951056 0.30902 0
    outer loop
      vertex 62.2839 1.98316 0
      vertex 62.4454 2.48022 1.8
      vertex 62.4454 2.48022 0
    endloop
  endfacet
  facet normal -0.951056 0.30902 0
    outer loop
      vertex 62.4454 2.48022 1.8
      vertex 62.2839 1.98316 0
      vertex 62.2839 1.98316 1.8
    endloop
  endfacet
  facet normal 0.406738 0.913545 -0
    outer loop
      vertex 59.2275 0.622358 0
      vertex 58.75 0.834936 1.8
      vertex 59.2275 0.622358 1.8
    endloop
  endfacet
  facet normal 0.406738 0.913545 0
    outer loop
      vertex 58.75 0.834936 1.8
      vertex 59.2275 0.622358 0
      vertex 58.75 0.834936 0
    endloop
  endfacet
  facet normal 0.866028 0.499996 0
    outer loop
      vertex 57.9775 1.53054 1.8
      vertex 57.7161 1.98316 0
      vertex 57.7161 1.98316 1.8
    endloop
  endfacet
  facet normal 0.866028 0.499996 0
    outer loop
      vertex 57.7161 1.98316 0
      vertex 57.9775 1.53054 1.8
      vertex 57.9775 1.53054 0
    endloop
  endfacet
  facet normal -1 0 0
    outer loop
      vertex 0 0 0
      vertex 0 12.9 3
      vertex 0 12.9 0
    endloop
  endfacet
  facet normal -1 -0 0
    outer loop
      vertex 0 12.9 3
      vertex 0 0 0
      vertex 0 0 3
    endloop
  endfacet
  facet normal 0 0 1
    outer loop
      vertex 86.8902 12.504 3
      vertex 90 12.9 3
      vertex 86.9318 12.9 3
    endloop
  endfacet
  facet normal 0 0 1
    outer loop
      vertex 86.8356 11.9843 3
      vertex 90 12.9 3
      vertex 86.8902 12.504 3
    endloop
  endfacet
  facet normal 0 0 1
    outer loop
      vertex 86.2154 10.0755 3
      vertex 90 12.9 3
      vertex 86.8356 11.9843 3
    endloop
  endfacet
  facet normal 0 0 1
    outer loop
      vertex 86.0539 9.57849 3
      vertex 90 12.9 3
      vertex 86.2154 10.0755 3
    endloop
  endfacet
  facet normal 0 0 1
    outer loop
      vertex 90 12.9 3
      vertex 86.0539 9.57849 3
      vertex 90 0 3
    endloop
  endfacet
  facet normal -0 0 1
    outer loop
      vertex 85.0504 7.84042 3
      vertex 90 0 3
      vertex 86.0539 9.57849 3
    endloop
  endfacet
  facet normal -0 0 1
    outer loop
      vertex 84.7891 7.3878 3
      vertex 90 0 3
      vertex 85.0504 7.84042 3
    endloop
  endfacet
  facet normal -0 0 1
    outer loop
      vertex 84.4394 6.9994 3
      vertex 90 0 3
      vertex 84.7891 7.3878 3
    endloop
  endfacet
  facet normal -0 0 1
    outer loop
      vertex 83.0965 5.50795 3
      vertex 90 0 3
      vertex 84.4394 6.9994 3
    endloop
  endfacet
  facet normal -0 0 1
    outer loop
      vertex 82.6737 5.20075 3
      vertex 90 0 3
      vertex 83.0965 5.50795 3
    endloop
  endfacet
  facet normal -0 0 1
    outer loop
      vertex 81.05 4.02109 3
      vertex 90 0 3
      vertex 82.6737 5.20075 3
    endloop
  endfacet
  facet normal -0 0 1
    outer loop
      vertex 79.2166 3.20479 3
      vertex 90 0 3
      vertex 81.05 4.02109 3
    endloop
  endfacet
  facet normal -0 0 1
    outer loop
      vertex 78.7391 2.99222 3
      vertex 90 0 3
      vertex 79.2166 3.20479 3
    endloop
  endfacet
  facet normal -0 0 1
    outer loop
      vertex 78.2279 2.88355 3
      vertex 90 0 3
      vertex 78.7391 2.99222 3
    endloop
  endfacet
  facet normal -0 0 1
    outer loop
      vertex 76.2648 2.46628 3
      vertex 90 0 3
      vertex 78.2279 2.88355 3
    endloop
  endfacet
  facet normal -0 0 1
    outer loop
      vertex 73.7352 2.46628 3
      vertex 90 0 3
      vertex 76.2648 2.46628 3
    endloop
  endfacet
  facet normal 0 0 1
    outer loop
      vertex 48.2279 2.88355 3
      vertex 71.7721 2.88355 3
      vertex 71.2609 2.99222 3
    endloop
  endfacet
  facet normal -0 0 1
    outer loop
      vertex 51.05 4.02109 3
      vertex 70.7834 3.20479 3
      vertex 68.95 4.02109 3
    endloop
  endfacet
  facet normal 0 0 1
    outer loop
      vertex 52.6737 5.20075 3
      vertex 67.3263 5.20075 3
      vertex 66.9035 5.50795 3
    endloop
  endfacet
  facet normal 0 0 1
    outer loop
      vertex 56.2154 10.0755 3
      vertex 63.7846 10.0755 3
      vertex 63.1644 11.9843 3
    endloop
  endfacet
  facet normal 0 0 1
    outer loop
      vertex 56.8902 12.504 3
      vertex 63.1098 12.504 3
      vertex 63.0682 12.9 3
    endloop
  endfacet
  facet normal 0 0 1
    outer loop
      vertex 56.8902 12.504 3
      vertex 63.0682 12.9 3
      vertex 56.9318 12.9 3
    endloop
  endfacet
  facet normal 0 0 1
    outer loop
      vertex 63.1098 12.504 3
      vertex 56.8902 12.504 3
      vertex 63.1644 11.9843 3
    endloop
  endfacet
  facet normal 0 0 1
    outer loop
      vertex 56.8356 11.9843 3
      vertex 63.1644 11.9843 3
      vertex 56.8902 12.504 3
    endloop
  endfacet
  facet normal 0 0 1
    outer loop
      vertex 56.2154 10.0755 3
      vertex 63.1644 11.9843 3
      vertex 56.8356 11.9843 3
    endloop
  endfacet
  facet normal 0 0 1
    outer loop
      vertex 63.7846 10.0755 3
      vertex 56.2154 10.0755 3
      vertex 63.9461 9.57849 3
    endloop
  endfacet
  facet normal 0 0 1
    outer loop
      vertex 56.0539 9.57849 3
      vertex 63.9461 9.57849 3
      vertex 56.2154 10.0755 3
    endloop
  endfacet
  facet normal 0 0 1
    outer loop
      vertex 63.9461 9.57849 3
      vertex 56.0539 9.57849 3
      vertex 64.9496 7.84042 3
    endloop
  endfacet
  facet normal 0 0 1
    outer loop
      vertex 55.0504 7.84042 3
      vertex 64.9496 7.84042 3
      vertex 56.0539 9.57849 3
    endloop
  endfacet
  facet normal 0 0 1
    outer loop
      vertex 64.9496 7.84042 3
      vertex 55.0504 7.84042 3
      vertex 65.2109 7.3878 3
    endloop
  endfacet
  facet normal 0 0 1
    outer loop
      vertex 54.7891 7.3878 3
      vertex 65.2109 7.3878 3
      vertex 55.0504 7.84042 3
    endloop
  endfacet
  facet normal 0 0 1
    outer loop
      vertex 65.2109 7.3878 3
      vertex 54.7891 7.3878 3
      vertex 65.5606 6.9994 3
    endloop
  endfacet
  facet normal 0 0 1
    outer loop
      vertex 54.4394 6.9994 3
      vertex 65.5606 6.9994 3
      vertex 54.7891 7.3878 3
    endloop
  endfacet
  facet normal 0 0 1
    outer loop
      vertex 65.5606 6.9994 3
      vertex 54.4394 6.9994 3
      vertex 66.9035 5.50795 3
    endloop
  endfacet
  facet normal 0 0 1
    outer loop
      vertex 53.0965 5.50795 3
      vertex 66.9035 5.50795 3
      vertex 54.4394 6.9994 3
    endloop
  endfacet
  facet normal 0 0 1
    outer loop
      vertex 52.6737 5.20075 3
      vertex 66.9035 5.50795 3
      vertex 53.0965 5.50795 3
    endloop
  endfacet
  facet normal 0 0 1
    outer loop
      vertex 67.3263 5.20075 3
      vertex 52.6737 5.20075 3
      vertex 68.95 4.02109 3
    endloop
  endfacet
  facet normal 0 0 1
    outer loop
      vertex 51.05 4.02109 3
      vertex 68.95 4.02109 3
      vertex 52.6737 5.20075 3
    endloop
  endfacet
  facet normal 0 0 1
    outer loop
      vertex 49.2166 3.20479 3
      vertex 70.7834 3.20479 3
      vertex 51.05 4.02109 3
    endloop
  endfacet
  facet normal 0 0 1
    outer loop
      vertex 70.7834 3.20479 3
      vertex 49.2166 3.20479 3
      vertex 71.2609 2.99222 3
    endloop
  endfacet
  facet normal 0 0 1
    outer loop
      vertex 48.7391 2.99222 3
      vertex 71.2609 2.99222 3
      vertex 49.2166 3.20479 3
    endloop
  endfacet
  facet normal 0 0 1
    outer loop
      vertex 48.2279 2.88355 3
      vertex 71.2609 2.99222 3
      vertex 48.7391 2.99222 3
    endloop
  endfacet
  facet normal 0 0 1
    outer loop
      vertex 71.7721 2.88355 3
      vertex 48.2279 2.88355 3
      vertex 73.7352 2.46628 3
    endloop
  endfacet
  facet normal 0 0 1
    outer loop
      vertex 46.2648 2.46628 3
      vertex 73.7352 2.46628 3
      vertex 48.2279 2.88355 3
    endloop
  endfacet
  facet normal 0 0 1
    outer loop
      vertex 73.7352 2.46628 3
      vertex 46.2648 2.46628 3
      vertex 90 0 3
    endloop
  endfacet
  facet normal -0 0 1
    outer loop
      vertex 43.7352 2.46628 3
      vertex 90 0 3
      vertex 46.2648 2.46628 3
    endloop
  endfacet
  facet normal 0 0 1
    outer loop
      vertex 22.6737 5.20075 3
      vertex 37.3263 5.20075 3
      vertex 36.9035 5.50795 3
    endloop
  endfacet
  facet normal 0 0 1
    outer loop
      vertex 24.4394 6.9994 3
      vertex 35.5606 6.9994 3
      vertex 35.2109 7.3878 3
    endloop
  endfacet
  facet normal 0 0 1
    outer loop
      vertex 26.2154 10.0755 3
      vertex 33.7846 10.0755 3
      vertex 33.1644 11.9843 3
    endloop
  endfacet
  facet normal 0 0 1
    outer loop
      vertex 26.8902 12.504 3
      vertex 33.1098 12.504 3
      vertex 33.0682 12.9 3
    endloop
  endfacet
  facet normal 0 0 1
    outer loop
      vertex 26.8902 12.504 3
      vertex 33.0682 12.9 3
      vertex 26.9318 12.9 3
    endloop
  endfacet
  facet normal 0 0 1
    outer loop
      vertex 33.1098 12.504 3
      vertex 26.8902 12.504 3
      vertex 33.1644 11.9843 3
    endloop
  endfacet
  facet normal 0 0 1
    outer loop
      vertex 26.8356 11.9843 3
      vertex 33.1644 11.9843 3
      vertex 26.8902 12.504 3
    endloop
  endfacet
  facet normal 0 0 1
    outer loop
      vertex 26.2154 10.0755 3
      vertex 33.1644 11.9843 3
      vertex 26.8356 11.9843 3
    endloop
  endfacet
  facet normal 0 0 1
    outer loop
      vertex 33.7846 10.0755 3
      vertex 26.2154 10.0755 3
      vertex 33.9461 9.57849 3
    endloop
  endfacet
  facet normal 0 0 1
    outer loop
      vertex 26.0539 9.57849 3
      vertex 33.9461 9.57849 3
      vertex 26.2154 10.0755 3
    endloop
  endfacet
  facet normal 0 0 1
    outer loop
      vertex 33.9461 9.57849 3
      vertex 26.0539 9.57849 3
      vertex 34.9496 7.84042 3
    endloop
  endfacet
  facet normal 0 0 1
    outer loop
      vertex 25.0504 7.84042 3
      vertex 34.9496 7.84042 3
      vertex 26.0539 9.57849 3
    endloop
  endfacet
  facet normal 0 0 1
    outer loop
      vertex 34.9496 7.84042 3
      vertex 25.0504 7.84042 3
      vertex 35.2109 7.3878 3
    endloop
  endfacet
  facet normal 0 0 1
    outer loop
      vertex 24.7891 7.3878 3
      vertex 35.2109 7.3878 3
      vertex 25.0504 7.84042 3
    endloop
  endfacet
  facet normal 0 0 1
    outer loop
      vertex 24.4394 6.9994 3
      vertex 35.2109 7.3878 3
      vertex 24.7891 7.3878 3
    endloop
  endfacet
  facet normal 0 0 1
    outer loop
      vertex 35.5606 6.9994 3
      vertex 24.4394 6.9994 3
      vertex 36.9035 5.50795 3
    endloop
  endfacet
  facet normal 0 0 1
    outer loop
      vertex 23.0965 5.50795 3
      vertex 36.9035 5.50795 3
      vertex 24.4394 6.9994 3
    endloop
  endfacet
  facet normal 0 0 1
    outer loop
      vertex 22.6737 5.20075 3
      vertex 36.9035 5.50795 3
      vertex 23.0965 5.50795 3
    endloop
  endfacet
  facet normal 0 0 1
    outer loop
      vertex 37.3263 5.20075 3
      vertex 22.6737 5.20075 3
      vertex 38.95 4.02109 3
    endloop
  endfacet
  facet normal 0 0 1
    outer loop
      vertex 21.05 4.02109 3
      vertex 38.95 4.02109 3
      vertex 22.6737 5.20075 3
    endloop
  endfacet
  facet normal 0 0 1
    outer loop
      vertex 38.95 4.02109 3
      vertex 21.05 4.02109 3
      vertex 40.7834 3.20479 3
    endloop
  endfacet
  facet normal 0 0 1
    outer loop
      vertex 19.2166 3.20479 3
      vertex 40.7834 3.20479 3
      vertex 21.05 4.02109 3
    endloop
  endfacet
  facet normal 0 0 1
    outer loop
      vertex 40.7834 3.20479 3
      vertex 19.2166 3.20479 3
      vertex 41.2609 2.99222 3
    endloop
  endfacet
  facet normal 0 0 1
    outer loop
      vertex 18.7391 2.99222 3
      vertex 41.2609 2.99222 3
      vertex 19.2166 3.20479 3
    endloop
  endfacet
  facet normal 0 0 1
    outer loop
      vertex 41.2609 2.99222 3
      vertex 18.7391 2.99222 3
      vertex 41.7721 2.88355 3
    endloop
  endfacet
  facet normal 0 0 1
    outer loop
      vertex 18.2279 2.88355 3
      vertex 41.7721 2.88355 3
      vertex 18.7391 2.99222 3
    endloop
  endfacet
  facet normal 0 0 1
    outer loop
      vertex 41.7721 2.88355 3
      vertex 18.2279 2.88355 3
      vertex 43.7352 2.46628 3
    endloop
  endfacet
  facet normal 0 0 1
    outer loop
      vertex 16.2648 2.46628 3
      vertex 43.7352 2.46628 3
      vertex 18.2279 2.88355 3
    endloop
  endfacet
  facet normal 0 0 1
    outer loop
      vertex 0 0 3
      vertex 43.7352 2.46628 3
      vertex 16.2648 2.46628 3
    endloop
  endfacet
  facet normal 0 0 1
    outer loop
      vertex 0 0 3
      vertex 16.2648 2.46628 3
      vertex 13.7352 2.46628 3
    endloop
  endfacet
  facet normal 0 0 1
    outer loop
      vertex 0 0 3
      vertex 11.7721 2.88355 3
      vertex 11.2609 2.99222 3
    endloop
  endfacet
  facet normal 0 0 1
    outer loop
      vertex 0 0 3
      vertex 10.7834 3.20479 3
      vertex 8.95 4.02109 3
    endloop
  endfacet
  facet normal 0 0 1
    outer loop
      vertex 0 0 3
      vertex 7.32635 5.20075 3
      vertex 6.90352 5.50795 3
    endloop
  endfacet
  facet normal -0 0 1
    outer loop
      vertex 0 12.9 3
      vertex 3.10978 12.504 3
      vertex 3.06817 12.9 3
    endloop
  endfacet
  facet normal 0 0 1
    outer loop
      vertex 3.10978 12.504 3
      vertex 0 12.9 3
      vertex 3.16441 11.9843 3
    endloop
  endfacet
  facet normal 0 0 1
    outer loop
      vertex 0 12.9 3
      vertex 3.78459 10.0755 3
      vertex 3.16441 11.9843 3
    endloop
  endfacet
  facet normal 0 0 1
    outer loop
      vertex 0 12.9 3
      vertex 3.9461 9.57849 3
      vertex 3.78459 10.0755 3
    endloop
  endfacet
  facet normal 0 0 1
    outer loop
      vertex 0 0 3
      vertex 3.9461 9.57849 3
      vertex 0 12.9 3
    endloop
  endfacet
  facet normal 0 0 1
    outer loop
      vertex 3.9461 9.57849 3
      vertex 0 0 3
      vertex 4.94957 7.84042 3
    endloop
  endfacet
  facet normal 0 0 1
    outer loop
      vertex 4.94957 7.84042 3
      vertex 0 0 3
      vertex 5.21089 7.3878 3
    endloop
  endfacet
  facet normal 0 0 1
    outer loop
      vertex 5.21089 7.3878 3
      vertex 0 0 3
      vertex 5.56061 6.9994 3
    endloop
  endfacet
  facet normal 0 0 1
    outer loop
      vertex 43.7352 2.46628 3
      vertex 0 0 3
      vertex 90 0 3
    endloop
  endfacet
  facet normal 0 0 1
    outer loop
      vertex 11.7721 2.88355 3
      vertex 0 0 3
      vertex 13.7352 2.46628 3
    endloop
  endfacet
  facet normal 0 0 1
    outer loop
      vertex 10.7834 3.20479 3
      vertex 0 0 3
      vertex 11.2609 2.99222 3
    endloop
  endfacet
  facet normal 0 0 1
    outer loop
      vertex 7.32635 5.20075 3
      vertex 0 0 3
      vertex 8.95 4.02109 3
    endloop
  endfacet
  facet normal 0 0 1
    outer loop
      vertex 5.56061 6.9994 3
      vertex 0 0 3
      vertex 6.90352 5.50795 3
    endloop
  endfacet
  facet normal 1 -0 0
    outer loop
      vertex 90 0 3
      vertex 90 12.9 0
      vertex 90 12.9 3
    endloop
  endfacet
  facet normal 1 0 0
    outer loop
      vertex 90 12.9 0
      vertex 90 0 3
      vertex 90 0 0
    endloop
  endfacet
  facet normal 0 1 0
    outer loop
      vertex 90 12.9 3
      vertex 87.0112 12.9 2.20649
      vertex 86.9318 12.9 3
    endloop
  endfacet
  facet normal 0 1 -0
    outer loop
      vertex 90 12.9 0
      vertex 87.0112 12.9 2.20649
      vertex 90 12.9 3
    endloop
  endfacet
  facet normal 0 1 0
    outer loop
      vertex 87.0112 12.9 2.20649
      vertex 90 12.9 0
      vertex 87.2318 12.9 0
    endloop
  endfacet
  facet normal 0 1 -0
    outer loop
      vertex 2.98882 12.9 2.20649
      vertex 0 12.9 3
      vertex 3.06817 12.9 3
    endloop
  endfacet
  facet normal 0 1 0
    outer loop
      vertex 0 12.9 0
      vertex 2.98882 12.9 2.20649
      vertex 2.76817 12.9 0
    endloop
  endfacet
  facet normal 0 1 0
    outer loop
      vertex 2.98882 12.9 2.20649
      vertex 0 12.9 0
      vertex 0 12.9 3
    endloop
  endfacet
  facet normal 0 1 -0
    outer loop
      vertex 32.9888 12.9 2.20649
      vertex 26.9318 12.9 3
      vertex 33.0682 12.9 3
    endloop
  endfacet
  facet normal 0 1 0
    outer loop
      vertex 32.9888 12.9 2.20649
      vertex 27.0112 12.9 2.20649
      vertex 26.9318 12.9 3
    endloop
  endfacet
  facet normal 0 1 -0
    outer loop
      vertex 32.7682 12.9 0
      vertex 27.0112 12.9 2.20649
      vertex 32.9888 12.9 2.20649
    endloop
  endfacet
  facet normal 0 1 0
    outer loop
      vertex 27.0112 12.9 2.20649
      vertex 32.7682 12.9 0
      vertex 27.2318 12.9 0
    endloop
  endfacet
  facet normal 0 1 -0
    outer loop
      vertex 62.9888 12.9 2.20649
      vertex 56.9318 12.9 3
      vertex 63.0682 12.9 3
    endloop
  endfacet
  facet normal 0 1 0
    outer loop
      vertex 62.9888 12.9 2.20649
      vertex 57.0112 12.9 2.20649
      vertex 56.9318 12.9 3
    endloop
  endfacet
  facet normal 0 1 -0
    outer loop
      vertex 62.7682 12.9 0
      vertex 57.0112 12.9 2.20649
      vertex 62.9888 12.9 2.20649
    endloop
  endfacet
  facet normal 0 1 0
    outer loop
      vertex 57.0112 12.9 2.20649
      vertex 62.7682 12.9 0
      vertex 57.2318 12.9 0
    endloop
  endfacet
  facet normal 0 0 -1
    outer loop
      vertex 86.328 9.45646 0
      vertex 90 12.9 0
      vertex 90 0 0
    endloop
  endfacet
  facet normal -0 0 -1
    outer loop
      vertex 90 12.9 0
      vertex 87.129 11.9219 0
      vertex 87.2318 12.9 0
    endloop
  endfacet
  facet normal 0 0 -1
    outer loop
      vertex 90 12.9 0
      vertex 86.974 11.4447 0
      vertex 87.129 11.9219 0
    endloop
  endfacet
  facet normal 0 0 -1
    outer loop
      vertex 90 12.9 0
      vertex 86.328 9.45646 0
      vertex 86.974 11.4447 0
    endloop
  endfacet
  facet normal 0 0 -1
    outer loop
      vertex 90 0 0
      vertex 86.0771 9.02195 0
      vertex 86.328 9.45646 0
    endloop
  endfacet
  facet normal 0 0 -1
    outer loop
      vertex 90 0 0
      vertex 85.0318 7.21146 0
      vertex 86.0771 9.02195 0
    endloop
  endfacet
  facet normal 0 0 -1
    outer loop
      vertex 90 0 0
      vertex 83.6329 5.65787 0
      vertex 85.0318 7.21146 0
    endloop
  endfacet
  facet normal 0 0 -1
    outer loop
      vertex 90 0 0
      vertex 83.2972 5.285 0
      vertex 83.6329 5.65787 0
    endloop
  endfacet
  facet normal 0 0 -1
    outer loop
      vertex 90 0 0
      vertex 81.6059 4.0562 0
      vertex 83.2972 5.285 0
    endloop
  endfacet
  facet normal 0 0 -1
    outer loop
      vertex 90 0 0
      vertex 81.2 3.76128 0
      vertex 81.6059 4.0562 0
    endloop
  endfacet
  facet normal 0 0 -1
    outer loop
      vertex 90 0 0
      vertex 80.7416 3.55721 0
      vertex 81.2 3.76128 0
    endloop
  endfacet
  facet normal 0 0 -1
    outer loop
      vertex 90 0 0
      vertex 78.8318 2.7069 0
      vertex 80.7416 3.55721 0
    endloop
  endfacet
  facet normal 0 0 -1
    outer loop
      vertex 90 0 0
      vertex 76.7869 2.27224 0
      vertex 78.8318 2.7069 0
    endloop
  endfacet
  facet normal 0 0 -1
    outer loop
      vertex 90 0 0
      vertex 76.2962 2.16793 0
      vertex 76.7869 2.27224 0
    endloop
  endfacet
  facet normal 0 0 -1
    outer loop
      vertex 90 0 0
      vertex 73.7038 2.16793 0
      vertex 76.2962 2.16793 0
    endloop
  endfacet
  facet normal 0 0 -1
    outer loop
      vertex 61.25 5.16506 0
      vertex 63.9229 9.02195 0
      vertex 64.9682 7.21146 0
    endloop
  endfacet
  facet normal 0 0 -1
    outer loop
      vertex 61.6728 4.85786 0
      vertex 64.9682 7.21146 0
      vertex 62.0225 4.46946 0
    endloop
  endfacet
  facet normal 0 0 -1
    outer loop
      vertex 62.0225 4.46946 0
      vertex 64.9682 7.21146 0
      vertex 62.2839 4.01684 0
    endloop
  endfacet
  facet normal -0 0 -1
    outer loop
      vertex 66.3671 5.65787 0
      vertex 62.2839 4.01684 0
      vertex 64.9682 7.21146 0
    endloop
  endfacet
  facet normal 0 0 -1
    outer loop
      vertex 62.2839 4.01684 0
      vertex 66.3671 5.65787 0
      vertex 62.4454 3.51978 0
    endloop
  endfacet
  facet normal -0 0 -1
    outer loop
      vertex 66.7028 5.285 0
      vertex 62.4454 3.51978 0
      vertex 66.3671 5.65787 0
    endloop
  endfacet
  facet normal 0 0 -1
    outer loop
      vertex 62.4454 3.51978 0
      vertex 66.7028 5.285 0
      vertex 62.5 3 0
    endloop
  endfacet
  facet normal 0 0 -1
    outer loop
      vertex 62.4454 2.48022 0
      vertex 66.7028 5.285 0
      vertex 68.3941 4.0562 0
    endloop
  endfacet
  facet normal 0 0 -1
    outer loop
      vertex 62.2839 1.98316 0
      vertex 68.3941 4.0562 0
      vertex 68.8 3.76128 0
    endloop
  endfacet
  facet normal 0 0 -1
    outer loop
      vertex 62.0225 1.53054 0
      vertex 68.8 3.76128 0
      vertex 69.2584 3.55721 0
    endloop
  endfacet
  facet normal 0 0 -1
    outer loop
      vertex 62.0225 1.53054 0
      vertex 69.2584 3.55721 0
      vertex 71.1682 2.7069 0
    endloop
  endfacet
  facet normal 0 0 -1
    outer loop
      vertex 61.25 0.834936 0
      vertex 71.1682 2.7069 0
      vertex 73.2131 2.27224 0
    endloop
  endfacet
  facet normal 0 0 -1
    outer loop
      vertex 61.25 0.834936 0
      vertex 73.2131 2.27224 0
      vertex 73.7038 2.16793 0
    endloop
  endfacet
  facet normal 0 0 -1
    outer loop
      vertex 60.7725 0.622358 0
      vertex 73.7038 2.16793 0
      vertex 90 0 0
    endloop
  endfacet
  facet normal 0 0 -1
    outer loop
      vertex 66.7028 5.285 0
      vertex 62.4454 2.48022 0
      vertex 62.5 3 0
    endloop
  endfacet
  facet normal 0 0 -1
    outer loop
      vertex 68.3941 4.0562 0
      vertex 62.2839 1.98316 0
      vertex 62.4454 2.48022 0
    endloop
  endfacet
  facet normal 0 0 -1
    outer loop
      vertex 68.8 3.76128 0
      vertex 62.0225 1.53054 0
      vertex 62.2839 1.98316 0
    endloop
  endfacet
  facet normal 0 0 -1
    outer loop
      vertex 71.1682 2.7069 0
      vertex 61.6728 1.14214 0
      vertex 62.0225 1.53054 0
    endloop
  endfacet
  facet normal 0 0 -1
    outer loop
      vertex 71.1682 2.7069 0
      vertex 61.25 0.834936 0
      vertex 61.6728 1.14214 0
    endloop
  endfacet
  facet normal 0 0 -1
    outer loop
      vertex 73.7038 2.16793 0
      vertex 60.7725 0.622358 0
      vertex 61.25 0.834936 0
    endloop
  endfacet
  facet normal 0 0 -1
    outer loop
      vertex 90 0 0
      vertex 60.2613 0.513695 0
      vertex 60.7725 0.622358 0
    endloop
  endfacet
  facet normal 0 0 -1
    outer loop
      vertex 90 0 0
      vertex 59.7387 0.513695 0
      vertex 60.2613 0.513695 0
    endloop
  endfacet
  facet normal -0 0 -1
    outer loop
      vertex 62.7682 12.9 0
      vertex 57.129 11.9219 0
      vertex 57.2318 12.9 0
    endloop
  endfacet
  facet normal 0 0 -1
    outer loop
      vertex 57.5546 3.51978 0
      vertex 56.974 11.4447 0
      vertex 57.129 11.9219 0
    endloop
  endfacet
  facet normal 0 0 -1
    outer loop
      vertex 57.5546 3.51978 0
      vertex 56.328 9.45646 0
      vertex 56.974 11.4447 0
    endloop
  endfacet
  facet normal 0 0 -1
    outer loop
      vertex 53.2972 5.285 0
      vertex 57.5 3 0
      vertex 57.5546 2.48022 0
    endloop
  endfacet
  facet normal 0 0 -1
    outer loop
      vertex 57.5546 3.51978 0
      vertex 56.0771 9.02195 0
      vertex 56.328 9.45646 0
    endloop
  endfacet
  facet normal 0 0 -1
    outer loop
      vertex 57.5546 3.51978 0
      vertex 55.0318 7.21146 0
      vertex 56.0771 9.02195 0
    endloop
  endfacet
  facet normal 0 0 -1
    outer loop
      vertex 51.6059 4.0562 0
      vertex 57.5546 2.48022 0
      vertex 57.7161 1.98316 0
    endloop
  endfacet
  facet normal 0 0 -1
    outer loop
      vertex 57.5546 3.51978 0
      vertex 53.6329 5.65787 0
      vertex 55.0318 7.21146 0
    endloop
  endfacet
  facet normal 0 0 -1
    outer loop
      vertex 51.2 3.76128 0
      vertex 57.7161 1.98316 0
      vertex 57.9775 1.53054 0
    endloop
  endfacet
  facet normal 0 0 -1
    outer loop
      vertex 48.8318 2.7069 0
      vertex 57.9775 1.53054 0
      vertex 58.3272 1.14214 0
    endloop
  endfacet
  facet normal 0 0 -1
    outer loop
      vertex 57.5546 3.51978 0
      vertex 53.2972 5.285 0
      vertex 53.6329 5.65787 0
    endloop
  endfacet
  facet normal 0 0 -1
    outer loop
      vertex 57.5546 2.48022 0
      vertex 51.6059 4.0562 0
      vertex 53.2972 5.285 0
    endloop
  endfacet
  facet normal 0 0 -1
    outer loop
      vertex 48.8318 2.7069 0
      vertex 58.3272 1.14214 0
      vertex 58.75 0.834936 0
    endloop
  endfacet
  facet normal 0 0 -1
    outer loop
      vertex 57.7161 1.98316 0
      vertex 51.2 3.76128 0
      vertex 51.6059 4.0562 0
    endloop
  endfacet
  facet normal 0 0 -1
    outer loop
      vertex 46.2962 2.16793 0
      vertex 58.75 0.834936 0
      vertex 59.2275 0.622358 0
    endloop
  endfacet
  facet normal 0 0 -1
    outer loop
      vertex 57.9775 1.53054 0
      vertex 50.7416 3.55721 0
      vertex 51.2 3.76128 0
    endloop
  endfacet
  facet normal 0 0 -1
    outer loop
      vertex 57.9775 1.53054 0
      vertex 48.8318 2.7069 0
      vertex 50.7416 3.55721 0
    endloop
  endfacet
  facet normal 0 0 -1
    outer loop
      vertex 30.7725 0.622358 0
      vertex 59.2275 0.622358 0
      vertex 59.7387 0.513695 0
    endloop
  endfacet
  facet normal 0 0 -1
    outer loop
      vertex 58.75 0.834936 0
      vertex 46.7869 2.27224 0
      vertex 48.8318 2.7069 0
    endloop
  endfacet
  facet normal 0 0 -1
    outer loop
      vertex 58.75 0.834936 0
      vertex 46.2962 2.16793 0
      vertex 46.7869 2.27224 0
    endloop
  endfacet
  facet normal 0 0 -1
    outer loop
      vertex 59.2275 0.622358 0
      vertex 43.7038 2.16793 0
      vertex 46.2962 2.16793 0
    endloop
  endfacet
  facet normal 0 0 -1
    outer loop
      vertex 31.25 5.16506 0
      vertex 33.9229 9.02195 0
      vertex 34.9682 7.21146 0
    endloop
  endfacet
  facet normal 0 0 -1
    outer loop
      vertex 31.6728 4.85786 0
      vertex 34.9682 7.21146 0
      vertex 32.0225 4.46946 0
    endloop
  endfacet
  facet normal 0 0 -1
    outer loop
      vertex 32.0225 4.46946 0
      vertex 34.9682 7.21146 0
      vertex 32.2839 4.01684 0
    endloop
  endfacet
  facet normal -0 0 -1
    outer loop
      vertex 36.3671 5.65787 0
      vertex 32.2839 4.01684 0
      vertex 34.9682 7.21146 0
    endloop
  endfacet
  facet normal 0 0 -1
    outer loop
      vertex 32.2839 4.01684 0
      vertex 36.3671 5.65787 0
      vertex 32.4454 3.51978 0
    endloop
  endfacet
  facet normal -0 0 -1
    outer loop
      vertex 36.7028 5.285 0
      vertex 32.4454 3.51978 0
      vertex 36.3671 5.65787 0
    endloop
  endfacet
  facet normal 0 0 -1
    outer loop
      vertex 32.4454 3.51978 0
      vertex 36.7028 5.285 0
      vertex 32.5 3 0
    endloop
  endfacet
  facet normal 0 0 -1
    outer loop
      vertex 32.4454 2.48022 0
      vertex 36.7028 5.285 0
      vertex 38.3941 4.0562 0
    endloop
  endfacet
  facet normal 0 0 -1
    outer loop
      vertex 32.2839 1.98316 0
      vertex 38.3941 4.0562 0
      vertex 38.8 3.76128 0
    endloop
  endfacet
  facet normal 0 0 -1
    outer loop
      vertex 32.0225 1.53054 0
      vertex 38.8 3.76128 0
      vertex 39.2584 3.55721 0
    endloop
  endfacet
  facet normal 0 0 -1
    outer loop
      vertex 32.0225 1.53054 0
      vertex 39.2584 3.55721 0
      vertex 41.1682 2.7069 0
    endloop
  endfacet
  facet normal 0 0 -1
    outer loop
      vertex 31.25 0.834936 0
      vertex 41.1682 2.7069 0
      vertex 43.2131 2.27224 0
    endloop
  endfacet
  facet normal 0 0 -1
    outer loop
      vertex 31.25 0.834936 0
      vertex 43.2131 2.27224 0
      vertex 43.7038 2.16793 0
    endloop
  endfacet
  facet normal 0 0 -1
    outer loop
      vertex 59.2275 0.622358 0
      vertex 30.7725 0.622358 0
      vertex 43.7038 2.16793 0
    endloop
  endfacet
  facet normal 0 0 -1
    outer loop
      vertex 36.7028 5.285 0
      vertex 32.4454 2.48022 0
      vertex 32.5 3 0
    endloop
  endfacet
  facet normal 0 0 -1
    outer loop
      vertex 38.3941 4.0562 0
      vertex 32.2839 1.98316 0
      vertex 32.4454 2.48022 0
    endloop
  endfacet
  facet normal 0 0 -1
    outer loop
      vertex 38.8 3.76128 0
      vertex 32.0225 1.53054 0
      vertex 32.2839 1.98316 0
    endloop
  endfacet
  facet normal 0 0 -1
    outer loop
      vertex 41.1682 2.7069 0
      vertex 31.6728 1.14214 0
      vertex 32.0225 1.53054 0
    endloop
  endfacet
  facet normal 0 0 -1
    outer loop
      vertex 41.1682 2.7069 0
      vertex 31.25 0.834936 0
      vertex 31.6728 1.14214 0
    endloop
  endfacet
  facet normal 0 0 -1
    outer loop
      vertex 30.2613 0.513695 0
      vertex 59.7387 0.513695 0
      vertex 90 0 0
    endloop
  endfacet
  facet normal 0 0 -1
    outer loop
      vertex 43.7038 2.16793 0
      vertex 30.7725 0.622358 0
      vertex 31.25 0.834936 0
    endloop
  endfacet
  facet normal 0 0 -1
    outer loop
      vertex 59.7387 0.513695 0
      vertex 30.2613 0.513695 0
      vertex 30.7725 0.622358 0
    endloop
  endfacet
  facet normal 0 0 -1
    outer loop
      vertex 90 0 0
      vertex 29.7387 0.513695 0
      vertex 30.2613 0.513695 0
    endloop
  endfacet
  facet normal -0 0 -1
    outer loop
      vertex 32.7682 12.9 0
      vertex 27.129 11.9219 0
      vertex 27.2318 12.9 0
    endloop
  endfacet
  facet normal 0 0 -1
    outer loop
      vertex 27.5546 3.51978 0
      vertex 26.974 11.4447 0
      vertex 27.129 11.9219 0
    endloop
  endfacet
  facet normal 0 0 -1
    outer loop
      vertex 27.5546 3.51978 0
      vertex 26.328 9.45646 0
      vertex 26.974 11.4447 0
    endloop
  endfacet
  facet normal 0 0 -1
    outer loop
      vertex 23.2972 5.285 0
      vertex 27.5 3 0
      vertex 27.5546 2.48022 0
    endloop
  endfacet
  facet normal 0 0 -1
    outer loop
      vertex 27.5546 3.51978 0
      vertex 26.0771 9.02195 0
      vertex 26.328 9.45646 0
    endloop
  endfacet
  facet normal 0 0 -1
    outer loop
      vertex 27.5546 3.51978 0
      vertex 25.0318 7.21146 0
      vertex 26.0771 9.02195 0
    endloop
  endfacet
  facet normal 0 0 -1
    outer loop
      vertex 21.6059 4.0562 0
      vertex 27.5546 2.48022 0
      vertex 27.7161 1.98316 0
    endloop
  endfacet
  facet normal 0 0 -1
    outer loop
      vertex 27.5546 3.51978 0
      vertex 23.6329 5.65787 0
      vertex 25.0318 7.21146 0
    endloop
  endfacet
  facet normal 0 0 -1
    outer loop
      vertex 21.2 3.76128 0
      vertex 27.7161 1.98316 0
      vertex 27.9775 1.53054 0
    endloop
  endfacet
  facet normal 0 0 -1
    outer loop
      vertex 18.8318 2.7069 0
      vertex 27.9775 1.53054 0
      vertex 28.3272 1.14214 0
    endloop
  endfacet
  facet normal 0 0 -1
    outer loop
      vertex 27.5546 3.51978 0
      vertex 23.2972 5.285 0
      vertex 23.6329 5.65787 0
    endloop
  endfacet
  facet normal 0 0 -1
    outer loop
      vertex 27.5546 2.48022 0
      vertex 21.6059 4.0562 0
      vertex 23.2972 5.285 0
    endloop
  endfacet
  facet normal 0 0 -1
    outer loop
      vertex 18.8318 2.7069 0
      vertex 28.3272 1.14214 0
      vertex 28.75 0.834936 0
    endloop
  endfacet
  facet normal 0 0 -1
    outer loop
      vertex 27.7161 1.98316 0
      vertex 21.2 3.76128 0
      vertex 21.6059 4.0562 0
    endloop
  endfacet
  facet normal 0 0 -1
    outer loop
      vertex 16.2962 2.16793 0
      vertex 28.75 0.834936 0
      vertex 29.2275 0.622358 0
    endloop
  endfacet
  facet normal 0 0 -1
    outer loop
      vertex 27.9775 1.53054 0
      vertex 20.7416 3.55721 0
      vertex 21.2 3.76128 0
    endloop
  endfacet
  facet normal 0 0 -1
    outer loop
      vertex 27.9775 1.53054 0
      vertex 18.8318 2.7069 0
      vertex 20.7416 3.55721 0
    endloop
  endfacet
  facet normal 0 0 -1
    outer loop
      vertex 0 0 0
      vertex 29.2275 0.622358 0
      vertex 29.7387 0.513695 0
    endloop
  endfacet
  facet normal 0 0 -1
    outer loop
      vertex 28.75 0.834936 0
      vertex 16.7869 2.27224 0
      vertex 18.8318 2.7069 0
    endloop
  endfacet
  facet normal 0 0 -1
    outer loop
      vertex 28.75 0.834936 0
      vertex 16.2962 2.16793 0
      vertex 16.7869 2.27224 0
    endloop
  endfacet
  facet normal -0 0 -1
    outer loop
      vertex 29.2275 0.622358 0
      vertex 0 0 0
      vertex 16.2962 2.16793 0
    endloop
  endfacet
  facet normal 0 0 -1
    outer loop
      vertex 0 0 0
      vertex 6.36705 5.65787 0
      vertex 6.70278 5.285 0
    endloop
  endfacet
  facet normal 0 0 -1
    outer loop
      vertex 0 0 0
      vertex 3.9229 9.02195 0
      vertex 4.96819 7.21146 0
    endloop
  endfacet
  facet normal 0 0 -1
    outer loop
      vertex 0 12.9 0
      vertex 3.02601 11.4447 0
      vertex 3.67204 9.45646 0
    endloop
  endfacet
  facet normal 0 0 -1
    outer loop
      vertex 0 0 0
      vertex 29.7387 0.513695 0
      vertex 90 0 0
    endloop
  endfacet
  facet normal -0 0 -1
    outer loop
      vertex 16.2962 2.16793 0
      vertex 0 0 0
      vertex 13.7038 2.16793 0
    endloop
  endfacet
  facet normal 0 0 -1
    outer loop
      vertex 0 0 0
      vertex 13.2131 2.27224 0
      vertex 13.7038 2.16793 0
    endloop
  endfacet
  facet normal 0 0 -1
    outer loop
      vertex 0 0 0
      vertex 11.1682 2.7069 0
      vertex 13.2131 2.27224 0
    endloop
  endfacet
  facet normal 0 0 -1
    outer loop
      vertex 0 0 0
      vertex 9.25836 3.55721 0
      vertex 11.1682 2.7069 0
    endloop
  endfacet
  facet normal 0 0 -1
    outer loop
      vertex 0 0 0
      vertex 8.8 3.76128 0
      vertex 9.25836 3.55721 0
    endloop
  endfacet
  facet normal 0 0 -1
    outer loop
      vertex 0 0 0
      vertex 8.39409 4.0562 0
      vertex 8.8 3.76128 0
    endloop
  endfacet
  facet normal 0 0 -1
    outer loop
      vertex 0 0 0
      vertex 6.70278 5.285 0
      vertex 8.39409 4.0562 0
    endloop
  endfacet
  facet normal -0 0 -1
    outer loop
      vertex 6.36705 5.65787 0
      vertex 0 0 0
      vertex 4.96819 7.21146 0
    endloop
  endfacet
  facet normal -0 0 -1
    outer loop
      vertex 3.9229 9.02195 0
      vertex 0 0 0
      vertex 3.67204 9.45646 0
    endloop
  endfacet
  facet normal 0 0 -1
    outer loop
      vertex 0 12.9 0
      vertex 3.67204 9.45646 0
      vertex 0 0 0
    endloop
  endfacet
  facet normal 0 0 -1
    outer loop
      vertex 3.02601 11.4447 0
      vertex 0 12.9 0
      vertex 2.87097 11.9219 0
    endloop
  endfacet
  facet normal 0 0 -1
    outer loop
      vertex 2.87097 11.9219 0
      vertex 0 12.9 0
      vertex 2.76817 12.9 0
    endloop
  endfacet
  facet normal 0 0 -1
    outer loop
      vertex 61.25 5.16506 0
      vertex 64.9682 7.21146 0
      vertex 61.6728 4.85786 0
    endloop
  endfacet
  facet normal 0 0 -1
    outer loop
      vertex 60.7725 5.37764 0
      vertex 63.9229 9.02195 0
      vertex 61.25 5.16506 0
    endloop
  endfacet
  facet normal -0 0 -1
    outer loop
      vertex 63.9229 9.02195 0
      vertex 60.7725 5.37764 0
      vertex 63.672 9.45646 0
    endloop
  endfacet
  facet normal 0 0 -1
    outer loop
      vertex 60.2613 5.4863 0
      vertex 63.672 9.45646 0
      vertex 60.7725 5.37764 0
    endloop
  endfacet
  facet normal 0 0 -1
    outer loop
      vertex 59.7387 5.4863 0
      vertex 63.672 9.45646 0
      vertex 60.2613 5.4863 0
    endloop
  endfacet
  facet normal -0 0 -1
    outer loop
      vertex 63.672 9.45646 0
      vertex 59.7387 5.4863 0
      vertex 63.026 11.4447 0
    endloop
  endfacet
  facet normal 0 0 -1
    outer loop
      vertex 63.026 11.4447 0
      vertex 57.129 11.9219 0
      vertex 62.871 11.9219 0
    endloop
  endfacet
  facet normal -0 0 -1
    outer loop
      vertex 63.026 11.4447 0
      vertex 59.7387 5.4863 0
      vertex 57.129 11.9219 0
    endloop
  endfacet
  facet normal 0 0 -1
    outer loop
      vertex 57.129 11.9219 0
      vertex 59.7387 5.4863 0
      vertex 59.2275 5.37764 0
    endloop
  endfacet
  facet normal 0 0 -1
    outer loop
      vertex 57.129 11.9219 0
      vertex 59.2275 5.37764 0
      vertex 58.75 5.16506 0
    endloop
  endfacet
  facet normal 0 0 -1
    outer loop
      vertex 57.129 11.9219 0
      vertex 58.75 5.16506 0
      vertex 58.3272 4.85786 0
    endloop
  endfacet
  facet normal 0 0 -1
    outer loop
      vertex 57.129 11.9219 0
      vertex 58.3272 4.85786 0
      vertex 57.9775 4.46946 0
    endloop
  endfacet
  facet normal 0 0 -1
    outer loop
      vertex 57.129 11.9219 0
      vertex 57.9775 4.46946 0
      vertex 57.7161 4.01684 0
    endloop
  endfacet
  facet normal 0 0 -1
    outer loop
      vertex 62.871 11.9219 0
      vertex 57.129 11.9219 0
      vertex 62.7682 12.9 0
    endloop
  endfacet
  facet normal 0 0 -1
    outer loop
      vertex 57.129 11.9219 0
      vertex 57.7161 4.01684 0
      vertex 57.5546 3.51978 0
    endloop
  endfacet
  facet normal 0 0 -1
    outer loop
      vertex 53.2972 5.285 0
      vertex 57.5546 3.51978 0
      vertex 57.5 3 0
    endloop
  endfacet
  facet normal 0 0 -1
    outer loop
      vertex 31.25 5.16506 0
      vertex 34.9682 7.21146 0
      vertex 31.6728 4.85786 0
    endloop
  endfacet
  facet normal 0 0 -1
    outer loop
      vertex 30.7725 5.37764 0
      vertex 33.9229 9.02195 0
      vertex 31.25 5.16506 0
    endloop
  endfacet
  facet normal -0 0 -1
    outer loop
      vertex 33.9229 9.02195 0
      vertex 30.7725 5.37764 0
      vertex 33.672 9.45646 0
    endloop
  endfacet
  facet normal 0 0 -1
    outer loop
      vertex 30.2613 5.4863 0
      vertex 33.672 9.45646 0
      vertex 30.7725 5.37764 0
    endloop
  endfacet
  facet normal 0 0 -1
    outer loop
      vertex 29.7387 5.4863 0
      vertex 33.672 9.45646 0
      vertex 30.2613 5.4863 0
    endloop
  endfacet
  facet normal -0 0 -1
    outer loop
      vertex 33.672 9.45646 0
      vertex 29.7387 5.4863 0
      vertex 33.026 11.4447 0
    endloop
  endfacet
  facet normal 0 0 -1
    outer loop
      vertex 33.026 11.4447 0
      vertex 27.129 11.9219 0
      vertex 32.871 11.9219 0
    endloop
  endfacet
  facet normal -0 0 -1
    outer loop
      vertex 33.026 11.4447 0
      vertex 29.7387 5.4863 0
      vertex 27.129 11.9219 0
    endloop
  endfacet
  facet normal 0 0 -1
    outer loop
      vertex 27.129 11.9219 0
      vertex 29.7387 5.4863 0
      vertex 29.2275 5.37764 0
    endloop
  endfacet
  facet normal 0 0 -1
    outer loop
      vertex 27.129 11.9219 0
      vertex 29.2275 5.37764 0
      vertex 28.75 5.16506 0
    endloop
  endfacet
  facet normal 0 0 -1
    outer loop
      vertex 27.129 11.9219 0
      vertex 28.75 5.16506 0
      vertex 28.3272 4.85786 0
    endloop
  endfacet
  facet normal 0 0 -1
    outer loop
      vertex 27.129 11.9219 0
      vertex 28.3272 4.85786 0
      vertex 27.9775 4.46946 0
    endloop
  endfacet
  facet normal 0 0 -1
    outer loop
      vertex 27.129 11.9219 0
      vertex 27.9775 4.46946 0
      vertex 27.7161 4.01684 0
    endloop
  endfacet
  facet normal 0 0 -1
    outer loop
      vertex 32.871 11.9219 0
      vertex 27.129 11.9219 0
      vertex 32.7682 12.9 0
    endloop
  endfacet
  facet normal 0 0 -1
    outer loop
      vertex 27.129 11.9219 0
      vertex 27.7161 4.01684 0
      vertex 27.5546 3.51978 0
    endloop
  endfacet
  facet normal 0 0 -1
    outer loop
      vertex 23.2972 5.285 0
      vertex 27.5546 3.51978 0
      vertex 27.5 3 0
    endloop
  endfacet
  facet normal 0 -1 0
    outer loop
      vertex 0 0 0
      vertex 90 0 3
      vertex 0 0 3
    endloop
  endfacet
  facet normal 0 -1 -0
    outer loop
      vertex 90 0 3
      vertex 0 0 0
      vertex 90 0 0
    endloop
  endfacet
endsolid OpenSCAD_Model
